<svg id="Page-1" xmlns="http://www.w3.org/2000/svg" width="72.839" height="46.992" viewBox="0 0 72.839 46.992">
  <g id="Logo" transform="translate(0)">
    <g id="Aadhaar-English-Logo">
      <g id="English-Logo">
        <path id="Fill-28" d="M0,36.435a5.216,5.216,0,0,0,1.625-1.48,13.721,13.721,0,0,1,1.892-2.008,7.091,7.091,0,0,1,3.463-1.6,30.048,30.048,0,0,0-.437,5.085ZM4.878,18.218h0a5.219,5.219,0,0,0,2.147-.468,13.734,13.734,0,0,1,2.642-.793,7.083,7.083,0,0,1,3.817.357,29.883,29.883,0,0,0-5.1,8.8A7.1,7.1,0,0,1,6.181,23a13.72,13.72,0,0,1-.634-2.685A5.218,5.218,0,0,0,4.878,18.218ZM18.209,4.882h0A5.214,5.214,0,0,0,20.3,5.55a13.7,13.7,0,0,1,2.684.635A7.083,7.083,0,0,1,26.115,8.4a29.846,29.846,0,0,0-8.809,5.092,7.088,7.088,0,0,1-.358-3.823,13.7,13.7,0,0,1,.792-2.643A5.213,5.213,0,0,0,18.209,4.882ZM36.419,0h0A5.2,5.2,0,0,0,37.9,1.626a13.755,13.755,0,0,1,2.007,1.892,7.091,7.091,0,0,1,1.6,3.492,30.072,30.072,0,0,0-10.175,0,7.089,7.089,0,0,1,1.6-3.492A13.76,13.76,0,0,1,34.94,1.626,5.2,5.2,0,0,0,36.419,0Zm18.21,4.881h0A5.215,5.215,0,0,0,55.1,7.03a13.749,13.749,0,0,1,.792,2.643,7.1,7.1,0,0,1-.358,3.823A29.861,29.861,0,0,0,46.724,8.4a7.084,7.084,0,0,1,3.128-2.218,13.685,13.685,0,0,1,2.684-.635A5.2,5.2,0,0,0,54.629,4.881ZM67.96,18.217h0a5.222,5.222,0,0,0-.668,2.095A13.735,13.735,0,0,1,66.658,23a7.094,7.094,0,0,1-2.2,3.117,29.867,29.867,0,0,0-5.1-8.8,7.085,7.085,0,0,1,3.817-.357,13.724,13.724,0,0,1,2.642.793A5.209,5.209,0,0,0,67.96,18.217Zm-2.1,13.133a7.094,7.094,0,0,1,3.463,1.6,13.7,13.7,0,0,1,1.892,2.008,5.21,5.21,0,0,0,1.625,1.48H66.3A30.086,30.086,0,0,0,65.859,31.35ZM45.1,10.25a27.7,27.7,0,0,1,18.99,26.186H58.651C59.011,25.773,54.359,16.149,45.1,10.25Z" transform="translate(0 0)" fill="#fab401" fill-rule="evenodd"/>
        <path id="Fill-29" d="M46.565,36.838h2.828a29.94,29.94,0,0,0-1.121-9.9,17.714,17.714,0,0,0-.676-1.818,15.546,15.546,0,0,0-2.377-3.768,16.337,16.337,0,0,0-3.794-3.33,14.248,14.248,0,0,0-1.322-.736h0a13.342,13.342,0,0,0-1.4-.589h0c-5.507-1.956-11.076-.565-15.748,1.978-.911.5-1.788,1.035-2.622,1.6s-1.629,1.16-2.376,1.767h0a32.346,32.346,0,0,0-3.095,2.868c-.216.229-.43.462-.637.7-.556.63-1.412,1.514-1.158,2.427.2.725,1.136.511,1.462.261a9.5,9.5,0,0,0,1.518-1.091c.636-.538,1.236-1.118,1.866-1.664a31.447,31.447,0,0,1,7.815-5.064q.855-.376,1.709-.677t1.689-.517h0c4.865-1.264,10.151-.445,13.536,3.524C45.92,26.635,46.516,31.753,46.565,36.838ZM11.478,32.517a9.671,9.671,0,0,0,.936-1.064,1.483,1.483,0,0,0,.318-1.528,1.052,1.052,0,0,0-.284-.378.974.974,0,0,0-.408-.2,1.189,1.189,0,0,0-1.181.5,5.174,5.174,0,0,0-1.125,2.171,1.6,1.6,0,0,0-.013.42,1.035,1.035,0,0,0,.107.364v0h0a.518.518,0,0,0,.47.287.974.974,0,0,0,.144-.006,1.307,1.307,0,0,0,.162-.029h0A2.048,2.048,0,0,0,11.478,32.517Zm29.333,4.321h2.8a19.385,19.385,0,0,0-1.94-9.7,8.941,8.941,0,0,0-6.712-4.967c-4.375-.646-8.79,1.207-12.522,3.858a47.326,47.326,0,0,0-10.349,10.8l3.7,0c3.335-4.73,11.007-11.91,16.651-11.957a7.269,7.269,0,0,1,4.979,1.614c.98.874,2.167,2.572,2.109,3.95-.034.817-.759,1.068-1.455.815a3.094,3.094,0,0,1-1.3-1.21,5.416,5.416,0,0,0-5.244-2.224c-2.506.343-5.612,2.289-7.615,4.059a48.6,48.6,0,0,0-4.81,4.957H23.1a20.424,20.424,0,0,1,4.983-4.5,11.155,11.155,0,0,1,2.211-1.083c2.048-.7,4.086-.526,4.99,2.025a8.013,8.013,0,0,1,.3,3.494v.065h2.709l.007-.083c0-.883-.017-1.477.063-2.352.068-.754.3-1.536,1-1.628C40.854,32.463,40.782,35.774,40.812,36.838ZM21.72,45.4h-2.2l-.545,1.919H17.22l2.321-7.347h2.223l2.386,7.347H22.319Zm-1.95-1.243h1.689q-.665-2.153-.861-2.954h-.022l-.348,1.4ZM13.636,45.4h-2.2l-.545,1.919H9.136l2.321-7.347h2.223l2.387,7.347H14.235Zm-1.95-1.243h1.688q-.664-2.153-.86-2.954h-.022l-.348,1.4Zm14.141,3.129V40.07a15.778,15.778,0,0,1,2.332-.163,4.759,4.759,0,0,1,3.371.983,3.409,3.409,0,0,1,1.021,2.57,3.677,3.677,0,0,1-1.162,2.905A5.3,5.3,0,0,1,27.8,47.4,15.669,15.669,0,0,1,25.827,47.286Zm1.689-6.017v4.785a3.446,3.446,0,0,0,.61.033,2.7,2.7,0,0,0,1.948-.663,2.508,2.508,0,0,0,.688-1.9,2.263,2.263,0,0,0-.628-1.728,2.543,2.543,0,0,0-1.813-.594A4.037,4.037,0,0,0,27.516,41.269Zm6.842-1.3h1.689v2.823h2.887V39.972h1.689v7.347H38.934V44.256H36.047v3.063H34.357ZM46.746,45.4h-2.2L44,47.319H42.246l2.321-7.347h2.223l2.386,7.347h-1.83ZM44.8,44.158h1.688q-.664-2.153-.861-2.954H45.6l-.349,1.4ZM54.83,45.4h-2.2l-.545,1.919H50.33l2.321-7.347h2.223l2.386,7.347h-1.83Zm-1.951-1.243h1.689q-.664-2.153-.861-2.954h-.022l-.349,1.4Zm6.057,3.161V40.07a13.424,13.424,0,0,1,2.277-.163,4.047,4.047,0,0,1,2.4.55,1.855,1.855,0,0,1,.73,1.575,1.8,1.8,0,0,1-.367,1.1,1.961,1.961,0,0,1-.952.7v.044a1.819,1.819,0,0,1,.991,1.351q.561,1.973.61,2.093H62.9a8.465,8.465,0,0,1-.523-1.711,1.925,1.925,0,0,0-.414-.916,1.15,1.15,0,0,0-.839-.262H60.6v2.889ZM60.6,41.2V43.22h.7a1.575,1.575,0,0,0,1-.287.927.927,0,0,0,.365-.77.907.907,0,0,0-.329-.75,1.461,1.461,0,0,0-.935-.264A3.7,3.7,0,0,0,60.6,41.2ZM30.7,36.845l2.248-.007c.3-1.9-.282-3.362-2.2-3.013-1.619.294-3.357,1.9-4.408,3.013l2.964-.013c.33-.217.977-.465,1.242-.28A.359.359,0,0,1,30.7,36.845Zm22.936-.005h.031a1.251,1.251,0,0,0,1.105-.62,1.522,1.522,0,0,0,.148-.344,2.056,2.056,0,0,0,.078-.45h0l0-.035c.225-7.857-2.181-14.362-6.264-18.781a20.053,20.053,0,0,0-2.566-2.336,19.339,19.339,0,0,0-2.9-1.83h0l-.016-.008h0a20.679,20.679,0,0,0-11.147-2.1,22.106,22.106,0,0,0-4.4.826l-.01,0a24.971,24.971,0,0,0-10.567,6.5q-.871.885-1.66,1.847-.391.477-.761.971a37.2,37.2,0,0,1,6.677-4.644q.792-.425,1.592-.8t1.619-.69h0A24.463,24.463,0,0,1,30.761,12.8a22.778,22.778,0,0,1,6.163.155,18.685,18.685,0,0,1,4.219,1.164c.252.1.5.217.743.334s.475.24.707.37h0l0,0h0c4.574,2.505,7.751,7.647,9.151,13.452a28.961,28.961,0,0,1,.8,6.971h0v.067a1.694,1.694,0,0,0,.608,1.392.838.838,0,0,0,.223.1h0A.9.9,0,0,0,53.639,36.84Z" transform="translate(-0.359 -0.403)" fill="#264488" fill-rule="evenodd"/>
      </g>
    </g>
  </g>
</svg>
