<svg xmlns="http://www.w3.org/2000/svg" width="82.702" height="46.99" viewBox="0 0 82.702 46.99">
  <g id="Group_70531" data-name="Group 70531" transform="translate(21154 17237.732)">
    <g id="Rectangle_21982" data-name="Rectangle 21982" transform="translate(-21154 -17237.732)" fill="#fff" stroke="#264488" stroke-width="1">
      <rect width="82.661" height="46.99" rx="3" stroke="none"/>
      <rect x="0.5" y="0.5" width="81.661" height="45.99" rx="2.5" fill="none"/>
    </g>
    <path id="Rectangle_144561" data-name="Rectangle 144561" d="M3,0H79.7a3,3,0,0,1,3,3V14.1a0,0,0,0,1,0,0H0a0,0,0,0,1,0,0V3A3,3,0,0,1,3,0Z" transform="translate(-21154 -17237.492)" fill="#264488"/>
    <rect id="Rectangle_21983" data-name="Rectangle 21983" width="23.495" height="2.819" transform="translate(-21120.102 -17214.238)" fill="#bfbfbf"/>
    <rect id="Rectangle_21986" data-name="Rectangle 21986" width="18.796" height="2.819" transform="translate(-21120.102 -17207.053)" fill="#bfbfbf"/>
    <rect id="Rectangle_144560" data-name="Rectangle 144560" width="13.157" height="2.819" transform="translate(-21120.102 -17201.08)" fill="#bfbfbf"/>
    <rect id="Rectangle_144562" data-name="Rectangle 144562" width="13.157" height="2.819" transform="translate(-21104.125 -17201.08)" fill="#bfbfbf"/>
    <rect id="Rectangle_21984" data-name="Rectangle 21984" width="41.82" height="2.214" transform="translate(-21120.102 -17218.936)" fill="#bfbfbf"/>
    <g id="Group_70532" data-name="Group 70532" transform="translate(-21148 -17220.742)">
      <circle id="Ellipse_118" data-name="Ellipse 118" cx="12" cy="12" r="12" fill="#d66025"/>
      <g id="Group_32117" data-name="Group 32117" transform="translate(4 5.324)">
        <path id="Path_27813" data-name="Path 27813" d="M200.923,15.91a3.227,3.227,0,0,0,.789,1.489,4.888,4.888,0,0,0,3.039,3.22,3.817,3.817,0,0,0,2.467,0,4.85,4.85,0,0,0,3.039-3.22,3.225,3.225,0,0,0,.789-1.489,2.24,2.24,0,0,0-.118-2.029.26.26,0,0,1-.059-.074c.04-.2.059-.41.079-.6.553-3.5-1.5-3.723-1.737-3.723-.02,0-.02-.019-.04-.019A2.709,2.709,0,0,0,206.25,7.85a18.367,18.367,0,0,1-3.986-.037,1.172,1.172,0,0,0,.454.912c-2.269,1.3-1.855,4.1-1.638,5.082a.26.26,0,0,0-.059.074,2.3,2.3,0,0,0-.1,2.029Zm1.184-1.638h.059v-.019a1.632,1.632,0,0,1,.632-1.88,6.064,6.064,0,0,0,3.592-.447c3.1-1.247,3.375,2.364,3.375,2.364h.059c.316,0,.651.242.3,1.4-.276.912-.533,1.173-.71,1.173a3.918,3.918,0,0,1-2.526,2.941,2.963,2.963,0,0,1-1.855,0,3.957,3.957,0,0,1-2.526-2.941c-.2-.019-.454-.261-.71-1.173-.336-1.191,0-1.415.316-1.415Z" transform="translate(-197.942 -7.812)" fill="#fff"/>
        <path id="Path_27814" data-name="Path 27814" d="M139.5,369.62a5.4,5.4,0,0,1-2.427,1.619,4.75,4.75,0,0,1-1.539.242,4.882,4.882,0,0,1-1.559-.261,5.641,5.641,0,0,1-2.408-1.619c-.848.428-2.546,1.857-4.086,2.918,1.756,2.308,4.836,3.411,8.052,3.411s6.338-1.084,8.094-3.373c-1.539-1.061-3.259-2.509-4.128-2.937Z" transform="translate(-127.479 -357.577)" fill="#fff"/>
      </g>
    </g>
    <text id="Driving_Licence" data-name="Driving Licence" transform="translate(-21112.662 -17227.672)" fill="#fff" font-size="6" font-family="Arial-Black, Arial" font-weight="800" letter-spacing="0.02em"><tspan x="-30" y="0">DRIVING LICENCE</tspan></text>
    <path id="Path_27815" data-name="Path 27815" d="M7.658,6.451c-.008,0-.017-.02-.038-.043C7.62,6.408,7.646,6.448,7.658,6.451ZM6.638,7.1h0Zm0,0h0Zm4.33-.246c-.039-.054-.071-.07-.1-.118s-.008-.061-.01-.132c0-.2-.186-.24-.3-.263-.089-.017-.126-.011-.136-.046a1.032,1.032,0,0,0-.072-.177.6.6,0,0,0-.191-.174A.356.356,0,0,0,9.9,5.893a.5.5,0,0,0-.206.1c-.1.082-.087.14-.136.14a.868.868,0,0,0-.221.049c-.074.023-.086,0-.1-.026A.333.333,0,0,0,9.2,6.026c-.04-.057-.1-.065-.087-.143a.387.387,0,0,0-.019-.225c-.026-.052-.051-.031-.051-.085a.257.257,0,0,0-.057-.158.27.27,0,0,0-.227-.049c-.068.011-.078.008-.092-.017A.122.122,0,0,0,8.532,5.3c-.031.008-.049.044-.09.039s-.032-.05-.1-.037c-.037.007-.051.054-.077.031s-.044-.051-.068-.043-.032.044-.058.044-.067-.053-.137-.044a.206.206,0,0,0-.065.02c-.046.017-.019-.049-.116-.011-.025.009-.049.09-.074.081a.125.125,0,0,0-.123-.024c-.04.018-.038.04-.1.04a.294.294,0,0,0-.2.013.142.142,0,0,0-.094.153c.019.063.011.169.028.2s.013.079-.038.129a1.816,1.816,0,0,0-.1.182c-.029.037-.074.015-.111,0a.441.441,0,0,0-.171-.062.2.2,0,0,1-.18-.083A.263.263,0,0,0,6.5,5.837a.269.269,0,0,0-.171.037c-.022.017-.061.073-.1.063a.19.19,0,0,0-.118.026.393.393,0,0,0-.131.12.607.607,0,0,0-.066.113.377.377,0,0,1-.069.083c-.031.02-.113.1-.177.1a.241.241,0,0,0-.109.071c-.04.04-.04.131-.051.191s-.089.124-.12.155a.382.382,0,0,0-.1.235c.009.055.02.1.046.11s.045,0,.066.018a.059.059,0,0,1,0,.058c-.009.011.071.089.1.106s.058.008.069.034a.935.935,0,0,0,.065.12c.024.034.012.04.052.088s.081.076.106.108.045.073.052.082.083.016.143,0a.192.192,0,0,0,.117-.129c.009-.038.031-.065.031-.033s.02.107.017.152-.034.04-.054.079-.009.064-.016.1-.117.107-.121.228c0,.028.039.052,0,.089s-.028.074-.03.2c0,.082.029.059.011.089a.192.192,0,0,0,.031.219c.046.05.054.026.031.078s.04.18.077.227.128.081.128.167c0,.1.131.157.143.166s.005.123.032.168.125.055.1.119a.688.688,0,0,0-.006.28,5.394,5.394,0,0,0,.1.544c.017.1-.077.217-.067.42s-.045.369-.1.376-.146-.031-.216,0-.085.149-.092.169-.114.054-.14.126A.289.289,0,0,0,6,11.781c.012.023-.041.048-.066.061a.158.158,0,0,0-.069.092c-.01.024-.038.015-.063.016a.117.117,0,0,0-.073.079.435.435,0,0,0-.006.089c0,.031-.023.039-.029.058s.011.113-.014.147a1.487,1.487,0,0,0-.008.19.319.319,0,0,0-.065.068.244.244,0,0,0,0,.174c.02.033.095.025.09.058a1.221,1.221,0,0,0,.03.335,1.513,1.513,0,0,1,.1.221c.017.047.064.043.085.067a.133.133,0,0,0,.1.039c.077,0,.232.046.3.04.034,0,.071-.008.062,0a.194.194,0,0,0-.021.261.37.37,0,0,0,.2.107c.045.01,1.676.046,1.676.046s1.354-.011,1.434-.017a.419.419,0,0,0,.2-.054.255.255,0,0,0,.125-.216c-.01-.088-.016-.124,0-.127s.132-.036.229-.069a.518.518,0,0,0,.235-.17c.007-.021.017-.1.065-.114s.02-.068.032-.087.054-.024.054-.085a1.2,1.2,0,0,1,.031-.238c.01-.027.049-.05.072-.065s.021-.168.01-.183-.082-.033-.091-.108c0-.034.009-.083.007-.123s-.042-.048-.037-.082a.14.14,0,0,0-.03-.1c-.024-.02-.056-.01-.058-.028a.127.127,0,0,0-.056-.1c-.025-.014-.011-.032-.022-.066s-.14-.067-.089-.148a.161.161,0,0,0-.083-.224c-.03-.011-.008-.07-.037-.107a.246.246,0,0,0-.2-.1.517.517,0,0,1-.166-.008.281.281,0,0,1-.069-.188.948.948,0,0,0-.1-.3.194.194,0,0,1,.014-.207,1.142,1.142,0,0,0,.076-.406,1.916,1.916,0,0,1,.007-.426c.113-.021.03-.1.086-.135s-.013-.071.041-.107a.165.165,0,0,0,.085-.115.509.509,0,0,1,.078-.14c.02-.035-.006-.08.012-.091.048-.03.136-.109.136-.154s-.04-.073,0-.106a.379.379,0,0,0,.1-.177c.014-.081-.071-.037,0-.121a.248.248,0,0,0,.054-.221c-.016-.057-.05-.049-.027-.1a.19.19,0,0,0,.013-.091.255.255,0,0,0-.054-.124c-.043-.055.024-.018.018-.077s-.062-.117-.076-.15c-.006-.015-.015-.06-.022-.085a.523.523,0,0,0-.077-.1c-.019-.021-.043-.089.015-.087.079,0,.061.091.074.129s.068.066.09.077a.137.137,0,0,0,.114-.016,1.356,1.356,0,0,0,.118-.134c.028-.027.082-.055.1-.1a.249.249,0,0,1,.069-.112c.036-.031.105-.07.13-.091a1.144,1.144,0,0,0,.115-.112.41.41,0,0,0,.1-.174c.019-.076-.037-.135-.088-.207Zm-5.328,5.83c-.007,0-.012-.015-.012-.034s.005-.034.012-.034.012.015.012.034S5.65,12.688,5.643,12.688Zm4.99-.187a.1.1,0,0,1,.047.081.1.1,0,0,1-.044.089.512.512,0,0,1,0-.17Zm-.1.008a1.464,1.464,0,0,1,.018-.337,1.715,1.715,0,0,1,.035.559,1.747,1.747,0,0,1-.051.276c-.012.031,0-.387,0-.5Zm-.158-.439a.768.768,0,0,1,.082.286,2.983,2.983,0,0,1,.009.519,1.668,1.668,0,0,1-.067.318,2.435,2.435,0,0,1-.017-.413c0-.065,0-.351-.011-.443a1.068,1.068,0,0,1,.005-.267ZM9.228,6.406c.019-.039.048-.072.147-.145.036-.027.1-.073.144-.05s.091,0,.116.018c.043.031.031.036.048-.013s-.005-.069.058-.14a.291.291,0,0,1,.2-.091c.082,0,.2.032.217.119.011.046-.069.108-.054.109a.117.117,0,0,0,.045-.015.093.093,0,0,0,.034-.027c.014-.021,0-.047.034-.049s.014.039.013.047a.047.047,0,0,1-.02.031c-.019.01-.024.017.007.012s.031-.038.057-.032.016.089.009.119-.032.1-.1.085c-.045-.009-.12-.034-.127.012s0,.074-.008.1c-.016.05-.033.039-.046-.009-.006-.022-.019-.033-.021,0s0,.054-.031.069-.164.023-.2.1c-.02.04,0,.1-.023.122a.07.07,0,0,1-.106-.034.212.212,0,0,1,.059-.165c.046-.043.031-.071.072-.113.011-.012,0-.064-.016-.063-.044,0,0,.081-.04.07s-.078-.07-.055-.084c.044-.028,0-.1-.024-.1s-.009.067-.006.116a.2.2,0,0,1-.071.157c-.075.042-.123.01-.161.026s-.046.015-.041.038.006.053-.015.064-.143-.07-.1-.123c.011-.013.042.005.065-.012s.026-.074.079-.083a.315.315,0,0,0,.16-.054c.04-.045.04-.111.027-.118s0,.05-.036.07-.059,0-.108.022-.139.124-.179.115c-.019,0-.038-.039-.011-.093Zm.712.5c.039.008-.009-.026.034-.074.014-.016.057-.052.093-.045.008,0,.028.028,0,.08-.014.026-.006.094-.024.132a.238.238,0,0,1-.166.094c-.068.01-.115.034-.123.057s.057.043.08.053,0,.045-.046.051a.113.113,0,0,1-.115-.088.322.322,0,0,1,.063-.2c.03-.023.057.03.081.039a.216.216,0,0,0,.145-.018c.018-.012.023-.038.007-.041-.039-.007-.079,0-.11-.017a.362.362,0,0,1-.072-.136c-.008-.025-.017-.067.017-.075a.681.681,0,0,0,.142-.061c.023-.016.056-.077.092-.087s.044.011.046.049-.013.085-.044.08c-.01,0-.021,0-.052.028-.049.048-.078.075-.087.114A.049.049,0,0,0,9.94,6.9ZM9.861,8.215c.052,0,.049-.028.051-.054a.173.173,0,0,1,.125-.12.065.065,0,0,1,.061.086c-.025.06-.064.049-.119.11s-.03.074-.041.1c0,.012-.038.031-.037-.04,0-.026-.073-.006-.093-.012-.05-.015-.056-.113-.1-.177s-.09-.025-.116-.12c-.017-.063.013-.062-.025-.123A.392.392,0,0,1,9.5,7.757c-.006-.023-.031-.081.059-.15s.125-.04.138-.023a.125.125,0,0,1,.029.066c0,.042-.081.032-.121.085-.022.03-.044.058-.016.073s.066-.048.092-.037a.171.171,0,0,0,.127-.036c.038-.023.051-.016.047.025,0,.06-.043.086-.1.116a.151.151,0,0,0-.081.161c.018.037.041.044.055.009s.008-.088.085-.1.054-.062.089-.062.047.053.029.088S9.8,8.063,9.8,8.14s.028.076.057.075Zm-.107.462a.194.194,0,0,0,.01.124c.014.048.01.087,0,.054a.634.634,0,0,1-.037-.121c-.006-.033-.061-.046-.047-.093s.045-.085.061-.128a.743.743,0,0,1,.066-.127c.012-.019.053-.009.071.042a.192.192,0,0,1-.033.149c-.034.062-.094.071-.089.1ZM9.685,9.3a.187.187,0,0,1-.08-.185A.193.193,0,0,1,9.7,9c.032-.017.014-.065.032-.064s.036.047.025.088-.044.056-.071.119S9.737,9.337,9.685,9.3Zm-.094-.2c.014.017-.059.029-.092-.043-.023-.049,0-.065-.015-.125s.1-.16.124-.178.048.068.047.1-.1.11-.1.159a.1.1,0,0,0,.041.089Zm-.184.182c-.013.039.031.047.033.06s0,.034-.071-.031c-.022-.02-.031-.054-.011-.11a.575.575,0,0,1,.056-.114c.024-.042.032-.037.032-.037s.039.095-.016.124c-.03.016-.007.058-.023.107Zm-.1-.158c-.007.051-.016.124-.041.11s-.054.072-.083.069-.035-.051-.026-.082.091-.106.1-.121-.01-.068-.016-.093S9.31,8.9,9.323,8.9s.055.1.036.127a.181.181,0,0,0-.05.1Zm0,.263c-.027.006-.059-.028-.062-.054a.048.048,0,0,1,.03-.049c.029-.011.033.043.05.052S9.324,9.386,9.3,9.39Zm-.181-.4c-.008-.013-.044-.036-.031-.059s.053,0,.073.02.036.1,0,.12-.049.021-.038-.017a.067.067,0,0,0,0-.064Zm.056,1.915c.013-.006.057.141.07.182,0,.014.023.114.024.129s-.077-.04-.071-.071c.024-.112-.051-.228-.023-.24Zm.022.344c.015-.009.107-.02.1,0a.152.152,0,0,1-.136.05C9.153,11.3,9.183,11.263,9.2,11.251Zm.7.561c.032.012.073.074.061.106s-.035.052-.054.031-.006-.072-.036-.084-.057-.019-.065-.054c0-.011.063-.012.094,0Zm-.064-.086c.013-.006.033.013.029.029s-.012.032-.029.019A.029.029,0,0,1,9.84,11.726Zm.261,1.607-.08.012h0c.008,0-.01-.051.015-.063.044-.021.037-.08.039-.088s-.031-.028-.033-.05a.417.417,0,0,1,.033-.083s.057.063.068.072.025.062.008.061-.03.086-.039.092.008.043-.01.047Zm.049-1.45c-.012-.005-.024-.023-.006-.027a.058.058,0,0,1,.035.006c.032.018.071.1.011.095-.017,0,0-.056-.039-.074Zm0-.125c-.021.044-.01-.019-.011-.038a.127.127,0,0,0-.058-.091c-.019-.013-.014.014-.021.024s-.021-.036-.021-.045,0-.016.025-.008a.214.214,0,0,1,.059.047A.115.115,0,0,1,10.146,11.757Zm-.036-.031c0,.015-.016.054-.025.056s-.01-.053-.009-.072,0-.037.017-.035.017.036.017.051Zm-.057.11c.034.015.058.09.042.107s-.056.023-.053-.033c0-.036-.024-.046-.046-.058s-.027-.034-.008-.037a.157.157,0,0,1,.065.021Zm-.019.335-.008.2H9.985v.039h.04l0,.048H9.985V12.5h.037v.038s-.2.009-.193-.02V12.5h.025v-.039H9.831c0-.018,0-.034,0-.048h.022v-.039H9.828a.236.236,0,0,0-.007-.036h.032V12.3H9.811v.013c-.023-.042-.062-.039-.1-.06l-.042-.021h.017v-.039H9.642v.027L9.6,12.2s-.008-.036-.015-.072h.03v-.039H9.576v-.009a.446.446,0,0,0-.026-.1.222.222,0,0,1,.138.006H9.653v.039H9.7v-.037l.048.017H9.727v.039h.042v-.028a1.364,1.364,0,0,1,.158.084H9.9v.039h.042v-.032c.057.035.1.063.1.063Zm-.205-.227c-.034,0-.07.013-.088-.019-.009-.016-.044-.08-.056-.1-.038-.051-.015-.04.006-.039a.075.075,0,0,1,.072.038C9.781,11.846,9.848,11.942,9.829,11.945Zm-.171-.019c-.028,0-.076.017-.078-.037s-.055-.072-.055-.1c0-.013.048-.016.077-.008S9.691,11.923,9.658,11.926Zm-.13-.056c0,.011.013.056,0,.056H9.471c-.02,0-.012-.059-.056-.092s-.066-.066-.052-.066h.075a.191.191,0,0,1,.089.1Zm-.112.148a.044.044,0,0,1-.04.034c-.025,0-.042-.03-.042-.049a.036.036,0,0,1,.04-.042A.043.043,0,0,1,9.415,12.017Zm.006-.326c0,.02-.054.029-.068.009s.019-.045.006-.087-.037-.09-.025-.093A.232.232,0,0,1,9.422,11.691Zm-.061.183c0,.025-.022.024-.045.024s-.057.005-.057-.03-.062-.07-.062-.1c0-.011.03-.008.057-.006s.032.022.039.03C9.319,11.824,9.36,11.857,9.36,11.873ZM9.2,12.1a.39.39,0,0,0-.008.051H9.163v.039h.021c0,.062-.006.126-.008.127s-.049.044-.069.044-.025-.1-.058-.165l0-.007h.011v-.039h-.03L9,12.107h.018v-.039H8.983c-.01-.018-.02-.036-.031-.052h0v-.039H8.924a.2.2,0,0,0-.026-.028l.278,0s0,.009.008.024H9.163v.039h.03a.281.281,0,0,1,.005.045H9.163V12.1Zm-.007.52a.31.31,0,0,1,0,.043s0,0,0,0H9.155V12.7h.031a.4.4,0,0,0,0,.048H9.155v.029h.039a.4.4,0,0,0,.059.148H9.239v.029h.035a.143.143,0,0,1,.03.073s-.022.051-.044.106v-.009H9.218v.029h.035c-.008.021-.016.042-.023.061H9.2v.029h.023a.119.119,0,0,0-.005.023c0,.035-.084.008-.088.043s.018.069-.01.068-.493.01-.493.01a.491.491,0,0,0,.114-.055v.017h.042v-.029H8.756l.022-.019a2.017,2.017,0,0,0,.227-.252h.021v-.029h0l.011-.021c.007-.015.015-.033.022-.053v.015H9.1v-.029H9.062c.007-.02.014-.043.021-.067H9.11v-.029h-.02A1.541,1.541,0,0,0,9.14,12.5c0-.014.034.021.045.09h-.03v.029h.033Zm-.171.861c-.021-.023-.059-.05-.04-.056s.027-.009.058.01.078.049.07.077,0,.046-.034.044-.077,0-.06-.02.027-.033.006-.056Zm-.146,0c-.014-.017-.048-.042-.03-.047a.164.164,0,0,1,.074,0,.113.113,0,0,1,.06.062c0,.009-.008.063-.037.066s-.084,0-.073-.021.02-.041.006-.059Zm.039.139c0-.016.034-.011.056-.011s.015.019.016.028-.022.024-.044.024S8.907,13.627,8.91,13.616Zm.194,0c0-.01.032-.005.054-.005s.016.013.018.021-.024.022-.046.023a.028.028,0,0,1-.026-.038Zm.045-.084a.056.056,0,0,0,0-.044c-.015-.024-.045-.061-.026-.063a.051.051,0,0,1,.046.02c.016.016.053.067.05.093s-.011.022-.038.022-.038,0-.032-.027Zm-.537-.06c-.019-.018-.062-.05-.046-.053s.034-.019.045-.013.1.079.1.1,0,.049-.04.049-.062-.014-.061-.026S8.631,13.49,8.612,13.473Zm-.128.023c-.008-.012-.053-.054-.039-.056a.175.175,0,0,0,.055-.017c.011-.006.061.057.071.067s.013.049,0,.058-.1.017-.084,0A.038.038,0,0,0,8.485,13.5Zm-.714.038c.007.008-.064.023-.08.018s-.048-.068-.029-.08a.556.556,0,0,1,.111-.071c.014,0,.033.011.059.012s-.067.023-.076.045a.111.111,0,0,0,.016.076Zm-.152.013a.146.146,0,0,1-.081,0c-.038-.014-.061-.072-.045-.083a.932.932,0,0,1,.214-.091.217.217,0,0,0,.037.019c.017.009-.118.055-.136.086s.02.059.012.07ZM7.452,13.5c.015.013.01.033-.027.036-.052.005-.1-.089-.071-.109a.592.592,0,0,1,.179-.067s.042.026.035.029-.1.052-.111.061a.033.033,0,0,0,0,.049Zm-.139.018a.074.074,0,0,1-.076,0C7.2,13.5,7.19,13.441,7.2,13.43a.26.26,0,0,1,.111-.048c.03,0,.052.013.051.019s-.066.03-.08.05S7.331,13.507,7.312,13.521ZM6.26,13.235l-.014-.021h.029V13.18H6.231V13.2a.034.034,0,0,0-.018-.008c-.023,0,0-.09,0-.109,0,0,0,0,0,0s0,0,0,0a.292.292,0,0,0,.206-.117c.019-.034.108.005.168.044H6.576v.034h.044V13.03h0c.055.043.259-.014.3.049l.011.012h-.01v.034h.044v-.014c.062.028.155.034.17.11.02.1-.038.107-.058.111s-.671.008-.687,0-.079,0-.107-.049l-.008-.014H6.3v-.034H6.26Zm.882.108c.007-.017.046-.051.055-.066a.148.148,0,0,0-.014-.091c-.011-.015-.05-.084-.073-.09s-.052-.024-.067-.029c-.036-.011,0-.019,0-.019a.115.115,0,0,1,.044.012.411.411,0,0,1,.1.055.59.59,0,0,1,.078.108c.015.042-.02.064-.023.095s-.01.037-.034.039S7.135,13.361,7.142,13.344ZM7.324,13h0a.1.1,0,0,0-.072-.027c-.024,0-.046-.021-.065-.052H7.2v-.034h-.03c-.037-.08-.055-.187-.027-.191a.717.717,0,0,1,.188-.01c.008,0,.011.017.014.035H7.3v.034h.044v-.012a.45.45,0,0,0,.066.214l.016.024H7.394v.034h.044V13a2.965,2.965,0,0,0,.2.3c.029.019,0,.027,0,.027a.666.666,0,0,1-.15,0c-.01-.009,0-.026-.016-.067H7.51v-.034H7.466v.019l-.009-.019c-.036-.067-.085-.127-.09-.147a.2.2,0,0,0-.017-.042h.018V13Zm.482.48a.4.4,0,0,1,.069-.068.413.413,0,0,0,.047.019s-.053.03-.023.076-.036.041-.058.042S7.8,13.5,7.807,13.484Zm.076.146c.008-.014.008-.036.041-.036S8,13.585,8,13.6a.058.058,0,0,1-.061.052C7.908,13.655,7.861,13.667,7.883,13.629Zm.073-.067c-.021-.006-.044-.061-.039-.079a.09.09,0,0,1,.022-.042.42.42,0,0,0,.088.015c.027,0-.016.025-.013.035l.021.06C8.042,13.573,7.977,13.568,7.956,13.563Zm.094.033a.388.388,0,0,1,.121,0s-.02.065-.048.066-.108.005-.108-.007A.07.07,0,0,1,8.05,13.6Zm.147-.043c0,.02-.1.013-.114,0s-.047-.092-.026-.088a.888.888,0,0,0,.127.015C8.2,13.481,8.192,13.533,8.2,13.553Zm-.006.038c.006,0,.111,0,.112,0s-.015.064-.03.066a.468.468,0,0,1-.112,0C8.163,13.647,8.175,13.595,8.191,13.591Zm.05-.044c-.011-.014-.011-.072,0-.073.025,0,.075-.008.087-.013s.036.077.01.09-.08.015-.1,0ZM8.234,13.4a.811.811,0,1,1,.8-.822A.811.811,0,0,1,8.234,13.4Zm-1-1.337v.029h.035c-.039.029-.081.06-.084.077H7.157V12.2h.028a.145.145,0,0,1-.046.1l-.006.007H7.092v.029H7.12a.106.106,0,0,0,.014.064H7.107v.029h.041a.123.123,0,0,1,.007.019c.011.041.019.1-.037.1-.035,0-.127-.036-.214-.054v-.024H6.863v.017l-.019,0v-.015H6.8v.015a.135.135,0,0,0-.029.006l-.012,0v-.024H6.718v.01c-.037-.04-.036-.152-.075-.2a.623.623,0,0,1-.082-.252H6.6V12h-.04l0-.018a2.887,2.887,0,0,1,.781-.042c.043.03.025.073,0,.1a.447.447,0,0,1-.057.046v-.023H7.233Zm-.7-.264a.146.146,0,0,1,.127-.045c.024,0,.017.025-.015.031a.064.064,0,0,0-.05.063c0,.025.017.053-.016.053H6.534c-.028,0-.028-.068,0-.1Zm-.023-.028a.207.207,0,0,0-.039.1c0,.027-.04.024-.061.027s-.015-.049,0-.081.024-.054.049-.059.069-.006.053.009Zm.2.009a.1.1,0,0,1,.086-.039c.035,0,.023.025,0,.045a.132.132,0,0,0-.051.1c0,.012-.085.021-.084-.008A.178.178,0,0,1,6.71,11.781Zm.519-.775a.383.383,0,0,1,.03-.155c.012-.032.013-.065.031-.109s-.025-.315.029-.3c.038.012.01.157.01.175A1.006,1.006,0,0,0,7.381,11c.012.017,0,.066-.01.12,0,.008-.03.033-.049.064s-.02.056-.03.066c-.035.036-.08-.018-.108.012s-.047.035-.051.011.016-.036.038-.074a.589.589,0,0,0,.026-.069.217.217,0,0,0,.032-.125ZM7,8.083a.157.157,0,0,0-.041.13c.007.044,0,.124-.03.142-.013.007,0,.08-.024.1s-.084-.016-.076-.043.048-.038.052-.075-.032-.07-.072-.121.032-.066.069-.066.078.01.061-.034-.1-.1-.107-.176.056-.058.071-.061,0,.079.031.082.02.015.042-.023-.05-.018-.04-.095-.012-.137,0-.167.038-.076.059-.074-.007.08.015.11c.035.049.056.061.064.08a.06.06,0,0,1-.019.084c-.031.021-.008.038-.045.07-.018.016.025.1-.008.133ZM6.923,9.29a.145.145,0,0,1-.085.043c-.065.006-.018-.029.01-.078s-.03-.129.017-.145.068.028.1.056-.01.053-.025.071,0,.038-.012.053Zm-.149-.114c-.028.069-.076.068-.1.11-.014.024.045.049-.046.095-.029.014-.064,0-.039-.022s.025-.087-.023-.122c-.028-.021-.037-.087,0-.091s.059.076.095.075.063-.053.061-.086-.034-.039-.058-.068S6.643,9.019,6.622,9c-.055-.037-.035-.066,0-.064.064,0,.093.072.119.09a.115.115,0,0,1,.035.145ZM6.76,9.44a.1.1,0,0,1-.093.015c-.033-.006.034-.008.055-.109C6.732,9.3,6.808,9.389,6.76,9.44Zm.031-.879a.28.28,0,0,1-.055-.068.056.056,0,0,1,.029-.066c.025-.01.039.035.05.072s.054.056.054.087a.1.1,0,0,1-.071.1.174.174,0,0,1-.142-.021c-.025-.029-.009-.049,0-.051.032-.006.046.041.083.048s.026-.017.046-.034a.046.046,0,0,0,0-.069Zm-.084.244c-.008-.005-.025-.031,0-.045a.069.069,0,0,1,.052-.01c.034,0,.042.024.075.018s.049-.058.073-.077.064.023.066.08c0,.03-.011.05-.056.051-.008,0-.012-.025-.032-.02s.012.059-.023.107-.042.076-.051.038.012-.067-.018-.1c-.017-.018-.06-.025-.084-.041Zm.208-.333a.029.029,0,0,1,.029.034c0,.02,0,.045-.011.052S6.907,8.54,6.9,8.539c-.03,0-.029-.065.014-.066Zm0,.569c.006-.029.011-.08,0-.089s-.044-.057-.015-.068.023,0,.052.029a.169.169,0,0,1,.021.151c-.021.025-.063.006-.057-.022Zm-.07-1.535c-.023-.041-.165-.027-.224-.13-.022-.039-.005-.071-.009-.115-.005-.06-.048-.068-.049-.1s.057-.071.057-.071a.025.025,0,0,0,.007.013c-.019-.021-.01-.1.021-.108.059-.01.058.034.107.082s.065-.007.079.031c0,.012,0,.031.048.052s.064,0,.087.009.064.062.052.138c-.005.033-.017.049-.062.075S6.894,7.35,6.9,7.319a.094.094,0,0,0-.058-.079,1.265,1.265,0,0,1-.129-.018c-.043-.016-.021-.1-.058-.116.007.006,0,.048,0,.077a.186.186,0,0,0,.078.143c.063.03.121.037.168.061a.118.118,0,0,1,.062.156.107.107,0,0,1-.131.047c-.021-.013.043-.043.019-.085ZM6.384,7.47c-.087-.075-.1-.118-.1-.173,0-.036.028-.07.059-.052s.076.08.1.093-.01.065.015.074.013-.01.021-.015.008-.031.01-.047.011,0,.014-.006a.061.061,0,0,0,0-.047c-.013-.027-.03,0-.085-.1a.294.294,0,0,0-.08-.071A.091.091,0,0,1,6.3,7.063c-.01-.029-.065-.088-.04-.1s.056.048.092.063.044-.005.073.01,0,.071.051.112.073.041.085.068c0,.007-.009.022,0,.035a.157.157,0,0,1,0,.143c-.039.058-.119.057-.1.068s.078.007.108.07a.148.148,0,0,1-.052.191c-.056.028-.14,0-.121-.015A.17.17,0,0,0,6.46,7.6c.009-.044-.009-.07-.076-.129Zm.342-.718c.015-.016.021.063.055.068a.111.111,0,0,1,.083.037c.015.024.015.048.047.066s.09.05.1.089-.037.082-.065.111-.016-.049-.071-.081S6.723,7,6.7,6.951a.182.182,0,0,1,.027-.2Zm.769.071c-.005-.045-.012-.093.024-.087s.036.033.019.087a.261.261,0,0,0-.016.089c0,.079-.04.132-.109.129s-.032-.026-.075-.069c-.023-.023-.072-.045-.087-.08a.17.17,0,0,1,0-.112c.011-.04.061,0,.114-.031s.036-.06.064-.059.042.068.044.1a.578.578,0,0,1,0,.072s.032-.016.028-.042Zm.231.354c.013.015,0,.07-.014.092s-.1.03-.111.074,0,.045-.018.072a.068.068,0,0,1-.049.023c-.03,0-.046-.019-.059-.059s-.018-.12-.056-.144a.556.556,0,0,1-.131-.167c-.007-.024.008-.028.014-.024a.888.888,0,0,1,.12.095c.033.03.032-.122.1-.1.044.015.024.09.038.145.031.121.02-.037.057-.046s.035.06.03.091.063-.071.079-.052Zm.151-.47a.3.3,0,0,1-.141-.044c-.016-.008-.009-.034.034-.026a.568.568,0,0,0,.137.021A.444.444,0,0,0,8.113,6.6c.045-.02.065-.03.071-.062s-.015-.028-.057.012a.461.461,0,0,1-.269.049c-.07-.013-.087-.043-.127-.094-.02-.026-.019-.058.011-.058s.051.082.093.1a.322.322,0,0,0,.2.017c.043-.011.085-.029.092-.054a.037.037,0,0,0-.019-.041c-.076-.037-.084-.008-.134-.04s-.027-.065-.057-.145a.054.054,0,0,1,.031-.077c.019,0,.035,0,.037.049s-.016.092.013.134.061,0,.128.046a.318.318,0,0,0,.119.037c.039-.006.048-.04.094-.045s.032.025.078.037a.125.125,0,0,0,.124-.033c.032-.029.045-.021.055-.055s-.005-.038,0-.084.1.012.058.131a.18.18,0,0,1-.1.1.287.287,0,0,1-.22-.042c-.063-.039-.016.031.052.054.135.045.164.026.2.008.067-.033.069-.084.118-.1s.039.039.008.088a.166.166,0,0,1-.15.085A.351.351,0,0,1,8.4,6.6a.427.427,0,0,1-.142-.087c-.034-.023-.017.018,0,.037a.293.293,0,0,0,.186.1.448.448,0,0,0,.224-.01c.091-.032.066-.095.132-.137.024-.015.042.018.055.039a.093.093,0,0,1,0,.083c-.017.022-.036,0-.03-.019s-.034-.038-.046-.011a.277.277,0,0,1-.3.154.308.308,0,0,1-.224-.107c-.027-.029-.028-.078-.055-.078s-.005.016-.034.058a.543.543,0,0,1-.116.1c-.041.033-.074.015-.161.063-.04.022-.111.017-.106-.023s.072-.025.106-.042.012-.019-.017-.02Zm-.022-.353c.039.03,0,.045.055.1a.237.237,0,0,0,.129.056.215.215,0,0,1-.123.015.2.2,0,0,1-.132-.106c-.018-.038.034-.089.07-.061Zm.61-.109c.02-.021.07-.015.071.042s0,.109-.065.143c-.082.042-.1-.029-.1-.029a.209.209,0,0,0,.084-.037c.034-.029-.014-.09.013-.119ZM8.876,7.3c.059-.047.026-.191,0-.223s.042,0,.075,0,0-.035-.05-.055c-.019-.008-.022-.028,0-.043s.062.01.123.07c.037.036.016.127-.012.177s-.023.087-.076.089-.058.057-.077.089a.086.086,0,0,1-.094.05c-.03-.005-.028-.026-.018-.035s.026,0,.031,0,.008-.044,0-.067a.8.8,0,0,0-.059-.091.064.064,0,0,1-.008-.076c.026-.019.056.077.081.068s-.047-.1-.016-.13c.007-.005.03.082.036.078.026-.017,0-.138.021-.12a.236.236,0,0,1,.042.121c.007.058-.006.106,0,.1Zm.36,1.329c-.015-.072-.041,0-.059-.083s-.066-.028-.018-.083c.017-.019.069-.007.092.042a.292.292,0,0,1,0,.255c-.053.083,0-.059-.019-.131ZM9.1,8.688a.07.07,0,0,1,.076.031c.035.06.032.118,0,.129s-.041-.013-.038-.061a.124.124,0,0,0-.04-.1Zm.092-.295c-.033,0-.022-.027-.029-.045S9.126,8.319,9.12,8.3a.044.044,0,0,1,.017-.051.073.073,0,0,1,.08-.009.08.08,0,0,1,.045.085c0,.026-.035.069-.068.068Zm-.06-.23c-.078-.009-.011,0,0-.044S9.12,8.1,9.1,8.066s-.031-.1.036-.1c.042,0,.077.036.095.094a.087.087,0,0,1-.092.1Zm-.344,2.387a1.854,1.854,0,0,0,.106.377,1.8,1.8,0,0,1,.024.194c.014.052-.03.037-.032.075s-.014.116.015.139.1.034.117.094a.1.1,0,0,1-.013.073.123.123,0,0,0,0,.076c.014.025.02-.008.034-.032s.062,0,.076.028a.34.34,0,0,1,.019.108c0,.028-.018.027-.03.02s.017-.081-.008-.1a.048.048,0,0,0-.054-.009c-.03.018.036.1.006.108-.01,0-.032.013-.045,0s0-.061-.012-.068-.032-.013-.038.03-.012.014-.011-.033.026-.083,0-.116a.181.181,0,0,1-.05-.073c-.014-.036.014-.065-.051-.076-.021,0-.092-.019-.083-.058a.069.069,0,0,0-.018-.08c-.021-.02.025-.085,0-.129a.548.548,0,0,1-.084-.273c0-.158-.016-.361-.016-.361a1.729,1.729,0,0,0-.048.257,2.39,2.39,0,0,0-.07.424.234.234,0,0,1,.008.077.6.6,0,0,1-.042.1.25.25,0,0,0-.01.142c.01.017-.045.026-.048-.029a.312.312,0,0,1,.03-.137c.011-.02.04-.049.045-.07a.2.2,0,0,0-.03-.1.222.222,0,0,1,0-.129c.029-.133.1-.585.111-.623s.012-.549.01-.612-.062-.184-.018-.19c.108-.015.105-.023.126-.041s.1-.122.128-.122c.056,0,.1.02.093.043-.014.1.078.175.027.379a3.642,3.642,0,0,1-.083.38c-.058.181-.1.253-.079.342Zm.16.695c.017-.014.023.028.034.04s.049.049.039.054a.082.082,0,0,1-.057-.015C8.947,11.309,8.938,11.256,8.951,11.246Zm-.024.585c-.009-.013-.082-.075-.066-.075.039,0,.071-.012.115.033a.223.223,0,0,1,.054.094c.005.021-.011.021-.043.021s-.062.007-.056-.019A.083.083,0,0,0,8.927,11.83Zm-.15-.017c-.034-.025-.075-.064-.056-.067a.124.124,0,0,1,.065.008.215.215,0,0,1,.069.067c.009.019.045.082.021.082-.045,0-.081,0-.088-.021S8.792,11.824,8.777,11.813Zm-.2-.158c.013.036-.017.063-.041.048a.22.22,0,0,1,.011-.18c.029-.027.01-.065-.012-.065s-.017-.085.019-.084.06.114.065.07a.565.565,0,0,0-.032-.137c-.012-.049-.012-.111,0-.109s.022-.081.006-.087-.013-.167-.005-.175.016-.119.036-.12.033.13.025.16.011.03.021.063-.01.073.007.1c.032.045,0,.086,0,.147s-.041.046-.011.129a.4.4,0,0,0,.021.07c.012.019.03-.008.035-.032a.3.3,0,0,1,.038-.083c.009-.012.037,0,.049.013a.051.051,0,0,1,.008.067c-.01.019-.029.03-.044.053s.049,0,.086.008a.068.068,0,0,1,.055.048.163.163,0,0,1,.007.056.212.212,0,0,1-.027.084.028.028,0,0,1-.046-.008c-.007-.024.035-.057.034-.093a.044.044,0,0,0-.021-.042.073.073,0,0,0-.073.012.04.04,0,0,0-.005.056.1.1,0,0,1,.033.048c.008.037-.021.041-.059.033-.012,0-.027-.056-.024-.109s-.035-.034-.058-.079c-.012-.023-.038-.006-.014.018a.125.125,0,0,1,.026.088.058.058,0,0,1-.043.059c-.009,0-.005-.04-.01-.078s-.041-.053-.057-.037,0,.079,0,.09Zm.263,0c-.006,0-.019-.01-.025-.031s-.006-.044.011-.044a.024.024,0,0,1,.021.028c0,.015,0,.044-.006.047Zm-.248-.066c.006,0,.019.026.014.053s-.006.033-.014,0S8.576,11.584,8.591,11.584Zm.029.175a.105.105,0,0,1,.073.023c.063.049.042.08.026.063a.172.172,0,0,0-.112-.059C8.593,11.786,8.6,11.759,8.62,11.759Zm.409,0a.149.149,0,0,1,.075.01.329.329,0,0,1,.087.108c.005.032-.053.023-.073.022-.046,0-.007-.068-.068-.112C9.038,11.777,9.008,11.76,9.03,11.757Zm.04-.114c0-.017,0-.026.011-.03s.018.028.01.038-.024.01-.022-.007Zm-.688-.138a.151.151,0,0,1-.012.18,1.777,1.777,0,0,1-.329.006c-.04,0,0-.063-.019-.1-.01-.015-.052-.068-.038-.084a.1.1,0,0,0-.005-.128c-.021-.021-.007-.156,0-.174a.323.323,0,0,0-.013-.154.869.869,0,0,1,.06-.47c.037-.068-.055-.627,0-.7.013-.015-.006-.061.022-.067s.047.038.073.017a.1.1,0,0,1,.09-.02c.031.005.047.037.064.041s.044-.036.056-.016.017.518.011.541a2.322,2.322,0,0,0,.094.439.246.246,0,0,1,0,.14.525.525,0,0,0-.008.077.376.376,0,0,1-.018.144c-.017.033-.04.107-.069.163a.185.185,0,0,0,.039.156Zm-.472.078c-.007-.016-.063-.05-.084,0a.107.107,0,0,0,0,.067c.006.015.038.033.043.06s-.051.006-.062-.018a.294.294,0,0,1-.008-.049.16.16,0,0,1,0-.1.057.057,0,0,1,.057-.031.084.084,0,0,1,.062.035.1.1,0,0,1,.01.075c0,.013.011.038.011.053s-.024.02-.028.022-.026,0-.02-.027.008-.031.013-.044a.071.071,0,0,0,0-.043Zm-.03.05a.02.02,0,0,1-.035,0c-.006-.013-.016-.039.015-.042C7.873,11.591,7.885,11.618,7.879,11.634Zm-.281.09c.029,0,.1-.01.08,0a.272.272,0,0,0-.07.061c-.009.014,0,.051-.01.062a.119.119,0,0,1-.076,0c-.033-.006.054-.127.076-.128Zm-.021-.141c.027.006.029.032.028.05s0,.036-.017.038-.021-.019-.021-.038S7.567,11.582,7.577,11.584Zm.172.132c.017,0,.064.018.024.045a.238.238,0,0,0-.077.089c-.006.012-.04.012-.04-.024C7.655,11.769,7.734,11.716,7.749,11.716Zm.021-.187c-.013,0,0,.01,0,.03s0,.132-.021.137-.019-.037-.007-.066-.017-.069-.025-.09a.917.917,0,0,0-.018-.1c-.013-.032-.028-.055-.035-.056s-.022.06-.045.079-.038.028-.041.038-.006.024.012.026a.15.15,0,0,1,.063.016.087.087,0,0,1,.029.076.112.112,0,0,1-.045.079c-.024.007,0-.083,0-.094s-.017-.033-.034-.042a.067.067,0,0,0-.058.008c-.013.007-.023.031-.016.042a.1.1,0,0,1,.016.076c-.011.026-.065.039-.065-.047,0-.039.016-.078.034-.083s0-.095.02-.159c.008-.028.016-.091.069-.092.018,0,.04.024.06.023s-.008-.078.009-.082.032-.062.051-.066.023.03.031.042a.481.481,0,0,1,0,.136c-.006.01-.005.027.013.027s.055-.022.033.022c-.01.019-.021.028-.022.041s.008.035.022.026.026-.042.039-.048.048,0,.049.02,0,.038-.025.04-.054,0-.058.011-.022.033-.035.032Zm-.3-.086a.244.244,0,0,1-.012.073c0,.023,0,.056-.012.08s-.026.051-.019.072c.018.053-.073.045-.081.018s.013-.065.04-.063c.007,0,.029-.018.014-.072-.005-.019.019-.047.025-.069s-.005-.039-.021-.039-.084.012-.074-.019.007-.071.017-.092.023-.025.045-.007.058,0,.078-.031.074-.315.045-.292-.014.115-.028.165a.175.175,0,0,1-.033.06c-.044.051-.078.053-.091.043s.01-.12.025-.12c.045,0,.029.062.039.062s.023-.085.013-.123c0,0-.007-.049-.007-.064,0-.087.013-.289.008-.3s.01-.4-.009-.423a2.03,2.03,0,0,1-.067-.433.441.441,0,0,0-.028-.136.247.247,0,0,1,.045-.24A.26.26,0,0,1,7.6,9.53c.038.036.124.112.131.151a.612.612,0,0,1,0,.249.257.257,0,0,0-.023.083,1.813,1.813,0,0,0,.006.34c0,.027.007.054.008.077a.783.783,0,0,0,.071.222.177.177,0,0,1,.034.158c-.021.016-.026-.07-.046-.084s-.032-.009-.03.006A.485.485,0,0,1,7.8,10.9a.583.583,0,0,0,.025.119c.015.06,0,.16-.038.165-.01,0-.034-.086-.039-.123A.253.253,0,0,0,7.732,11c-.006-.018-.015-.043-.024-.044s.038.168,0,.2c-.013.012-.05.053-.058.038s-.024-.21-.043-.238.011.212-.022.264c-.023.037-.127.177-.115.223Zm-.178.414c.009.038-.011.04-.059.04s-.055-.006-.054-.039a.245.245,0,0,1,.04-.084.093.093,0,0,1,.079-.048c.028,0,.071-.014.072,0s-.021.025-.041.045a.122.122,0,0,0-.036.082Zm-.011-.311a.089.089,0,0,0-.005.1c.015.018.026.043.015.055s-.057.009-.076-.012a.2.2,0,0,1,.021-.155.083.083,0,0,1,.065-.027.113.113,0,0,1,.055.036c.05.047.018.087.013.088s.011-.041-.039-.083c-.01-.008-.039-.015-.05,0Zm.035.1c-.01,0-.029-.016-.024-.033s0-.034.012-.032a.023.023,0,0,1,.023.02c.005.017,0,.042-.012.046Zm-.038-.256c-.019.041-.092.118-.088.139s0,.032,0,.056c0,.071-.023.115-.033.11s.019-.056.006-.108-.074-.037-.086-.027c-.03.025,0,.144-.019.136a.126.126,0,0,1-.03-.111.125.125,0,0,1,.112-.081c.047-.006.052-.032.053-.068s.019-.115.075-.128c.036-.008.03.045.013.082Zm-.151.236c-.006.02-.013.043-.026.03s-.007-.066.01-.071.021.021.016.041Zm0,.107c.041,0,.054.009.052.022s-.048.038-.059.06,0,.055-.017.068a.3.3,0,0,1-.089.007c-.038,0-.018-.043,0-.081a.118.118,0,0,1,.117-.076ZM7.319,8.9c.019-.01.057.061.036.084s.013.013-.024.067-.081.034-.1-.013c-.01-.029.059-.124.086-.138Zm-.1-.037c-.033.017-.037-.06-.026-.094a.188.188,0,0,1,.088-.1c.016-.007.074,0,.056.038A.557.557,0,0,1,7.215,8.859Zm1.018-1.9a.052.052,0,0,0,.062,0c.029-.014.024-.025.069-.073s.067-.03.061,0S8.367,7,8.306,7c-.02,0-.063,0-.067.013s-.058.031-.1-.009-.1-.109-.089-.153.066-.067.111-.07.036-.038.046-.029a.165.165,0,0,0,.137.057c.06,0,.01.1-.061.107s-.058.025-.044.036Zm-.188.024a.227.227,0,0,0,.138.081.259.259,0,0,0,.181-.025c.06-.045.128-.2.174-.216s.048.229.044.266a.221.221,0,0,1-.144.121c-.034,0-.1,0-.082-.019s.054-.022.059-.045-.029,0-.058,0-.067-.02-.06,0,.027.043.01.054-.13.025-.149,0,.03-.059.016-.073-.025.022-.058.034c-.054.02-.1,0-.09.016s.041.015.061.018.037.017-.012.022-.123.01-.158-.026a.169.169,0,0,1-.051-.15c.013-.06.019-.2.044-.2.045,0,.1.106.133.145Zm.688-.209c.007-.024.033-.028.041-.04s.006-.062.025-.079.027-.018.037.012-.007.067.013.1.009.058,0,.089-.05.046-.1.056a.125.125,0,0,0-.085.086c-.022.057-.055.008-.054-.012s-.019-.073,0-.085a.326.326,0,0,0,.106-.074c.025-.026.007-.02.015-.05Zm-.088.658c.022-.032.006-.142.02-.141s.042.035.052.077c.024.1-.046.006-.027.049a.134.134,0,0,1-.005.152.224.224,0,0,1-.164.069c-.04,0-.032-.015-.014-.032a.115.115,0,0,0,.019-.094c-.006-.036-.038-.074-.034-.1s.072.063.091.059-.023-.1,0-.1S8.63,7.451,8.645,7.43Zm.13.279c-.016-.03-.012-.075.036-.076a.063.063,0,0,1,.063.087.081.081,0,0,1-.089.061C8.726,7.776,8.8,7.761,8.775,7.709Zm.134.436c-.015-.029,0-.085.072-.077a.09.09,0,0,1,.076.05.21.21,0,0,1-.01.123c0,.026-.047.106-.041.02s-.055-.036-.1-.116Zm-.293.738a.265.265,0,0,1,0-.173c.035-.032.08.147.14.193s.073.076.06.105c-.025.054-.066.078-.047,0,.015-.059-.13-.107-.15-.125Zm-.006.564c0-.017.041,0,.049.007a.03.03,0,0,1-.007.053C8.628,9.515,8.608,9.471,8.611,9.446ZM8.595,9.3c.01-.025.04,0,.043.015s.021.054.008.052-.067-.025-.051-.067Zm.028-.086a.319.319,0,0,1,0-.158c.01-.025-.035-.041-.045-.068s.03-.026.067,0a.094.094,0,0,1,.047.071c0,.039,0,.067.006.072a.221.221,0,0,1,.066.152c-.013.042-.033.066-.062.034a.586.586,0,0,1-.074-.1ZM8.252,9.4c0-.069-.028-.129-.02-.136s.058.02.075.032a.158.158,0,0,1,.073.074c.019.054-.044.037-.042.054s.024.015.052.031.012.046-.025.053c-.062.011-.114-.086-.113-.107Zm.069.3c-.017.016-.041.021-.045.013s.014-.1.038-.085c.009.005.073.011.007.072Zm-.1-.919c-.046-.026-.038-.077-.024-.065.052.045.187.117.213.148a.1.1,0,0,1,0,.1c-.055.042-.161-.08-.178-.1s.012-.064-.012-.078Zm-.012.176c.01-.006.015,0,.018.016h0s.161.107.184.127.011.122-.01.13-.1-.048-.1-.078.021-.029.021-.051-.092-.059-.081-.083-.01-.012-.01-.012h0a.155.155,0,0,1-.008.046c-.007.013-.019.013-.063.021s-.084.1-.087.148.02.092-.021.076-.087-.077-.082-.11.065-.032.085-.071-.007-.1.037-.1a.244.244,0,0,0,.121-.055Zm.3.291a.109.109,0,0,1,.041.1c-.005.038-.007.041-.079.081-.012.007-.049.01-.035-.024a.308.308,0,0,0-.005-.144c-.012-.046.063-.017.078-.007Zm.035-.22c.027.027.017.091,0,.1s-.043-.028-.043-.048-.026-.037-.029-.051c-.008-.037.047-.022.072,0ZM8.441,9.5c.015,0,.023.038.015.06-.02.053-.065.049-.069.038s.021,0,.019-.038C8.4,9.5,8.425,9.492,8.441,9.5Zm-.284-.664c-.007.051-.122.135-.143.145s-.013.064-.032.08-.051,0-.062-.062a.113.113,0,0,1,.084-.13c.046-.013.047-.036.049-.065a.075.075,0,0,1,.059-.063c.028,0,.052.04.044.1Zm-.043.49c.023-.02.062-.116.066-.1.025.075-.015.081-.028.13s-.109.088-.113.129,0,.065-.017.076-.069.016-.069-.089c0-.123.13-.117.16-.145Zm.022.251c.035-.014.007-.051.025-.075a.043.043,0,0,1,.047-.013c.023.012.035.026.023.065s-.03.108-.076.116C8.128,9.673,8.115,9.583,8.137,9.575Zm.22.149c.006-.057.133-.091.147-.078s.013.118.014.145c.005.114.046.118.048.142a2.811,2.811,0,0,1-.074.539c-.038.044-.032-.036-.063-.134a1.615,1.615,0,0,1-.053-.375C8.376,9.858,8.351,9.783,8.357,9.724Zm.18-.864a.09.09,0,0,1-.06.032c-.041.009,0-.038,0-.062s-.056-.089-.122-.116c-.032-.013-.057.009-.119-.055-.025-.026-.018-.08-.059-.1s.014-.044-.059-.094h0a.132.132,0,0,0,0,.035c.01.074-.031.082-.056.107a.159.159,0,0,0-.07.137c0,.048-.037.07-.083.021s.008-.153.011-.183c0-.049.021-.044.061-.063a.068.068,0,0,0,.034-.084C8,8.423,7.989,8.409,8,8.393a.136.136,0,0,1,.125-.021c.02-.016.056-.037.061-.023s0,.06.011.094a.172.172,0,0,0,.07.094c.032.023.079.015.123.057.022.022.009.062.027.08a.236.236,0,0,0,.116.06c.043.016.031.1.007.124Zm-.774.591c0,.033.053.053,0,.054s-.085-.043-.09-.107c0-.029.058-.089.078-.112s0-.025.008-.042a.36.36,0,0,1,.09-.067c.028,0,.03.117,0,.131a.168.168,0,0,0-.085.144Zm-.278-.086c-.031,0-.067-.07-.05-.135.012-.049.041-.033.058-.049s.006-.034.015-.043a.024.024,0,0,1,.044.013c-.013.051-.055.065-.066.15,0,.031.048.062,0,.063Zm-.016-.459c-.037-.011-.071.007-.071-.03a.376.376,0,0,1,.022-.168c.028-.067.056-.064.056-.064s.065,0,.033.106c-.012.04-.076.072-.064.107s.07-.006.082.032a.229.229,0,0,1-.016.144c-.035.058-.089.092-.091.048s-.035-.066,0-.089.1-.072.048-.086Zm-.032-.34c.02.025-.082.044-.084-.086,0-.032.032-.1.061-.107.053-.014.071-.081.086-.078s.055.058.044.081c-.048.1-.1.094-.107.119a.086.086,0,0,0,0,.07Zm.008-.423c-.013.012-.045.016-.035.084,0,.024-.1-.016-.043-.139a.257.257,0,0,1,.149-.146c.034-.006.062.054.072.085s-.11.086-.143.116Zm.16.432c.028-.022-.008-.079.057-.107.049-.022.066-.064.091-.089s.069.1.06.138c-.013.058-.087.077-.125.117-.022.024,0,.054.006.083s-.035.049-.07,0S7.56,8.611,7.6,8.576Zm.034.308c.1-.1.11-.186.138-.167s.046.1.041.153-.163.1-.169.12S7.6,8.919,7.639,8.884Zm-.009.288c.012-.049.073-.057.1-.1s-.023-.081.03-.085c.026,0,.033-.015.043-.017s.037.03.021.051,0,.055-.007.074-.107.043-.108.074-.031.039-.018.08.018.072,0,.06a.154.154,0,0,1-.055-.132Zm.229-.761a.143.143,0,0,1,0-.145c.026-.037.052-.022.1-.063S7.988,8.13,8,8.1a.107.107,0,0,1,.055-.05c.055-.017.1,0,.1.073a.1.1,0,0,1-.041.094c-.018.017-.033.018-.066.027a.284.284,0,0,0-.11.122c-.008.029.038.078.025.09a.083.083,0,0,1-.113-.045Zm.4-1a.123.123,0,0,1,.1.031c.017.023.039.058.039.058s.009-.095.03-.094.057.1.055.141,0,.068-.049.085a.2.2,0,0,1-.186,0c-.036-.021.027-.037.057-.1s-.109-.118-.046-.125Zm.258.644c-.008-.059-.083-.058-.123-.082a.216.216,0,0,1-.1-.146c0-.043-.1-.076.039-.078.083,0,.086.044.1.064a.471.471,0,0,0,.1.13.134.134,0,0,1,.051.175.062.062,0,0,1-.091.035c-.032-.027.035-.019.025-.1Zm-.295-.5c-.009,0-.016-.012-.016-.026s.007-.026.016-.026.016.012.016.026S8.231,7.55,8.222,7.55Zm0,.455c.019-.012,0-.072.024-.072s.124.094.154.121.041.125.1.141c.088.023.09.067.083.093A.214.214,0,0,1,8.5,8.4c-.038.014-.057-.005-.064-.026s.013-.049,0-.086-.17-.12-.215-.135a.122.122,0,0,1-.056-.115c.012-.017.041-.018.06-.03Zm.221.645c-.042-.022.017-.052.019-.082s-.02-.088-.064-.091a.2.2,0,0,1-.121-.031.142.142,0,0,1-.066-.1.072.072,0,0,1,.054-.084c.015,0,.006.041.06.052a.112.112,0,0,1,.086.053c.037.042.038.087.093.1.072.017.11.089.069.128s-.1.075-.129.057Zm.359.608c0-.018.006-.031.021-.031s.037.054.039.062-.016.031-.038.02A.044.044,0,0,1,8.8,9.259Zm-.049-.387c-.011,0-.026-.01-.007-.03a.077.077,0,0,0,.006-.087.4.4,0,0,0-.111-.1c-.023-.008-.023-.051,0-.066s.036,0,.015-.018A.236.236,0,0,1,8.6,8.479c-.014-.032,0-.047,0-.047.02-.014.053.032.06.039a.834.834,0,0,1,.07.072c.009.021-.008.058.009.061.034.007.023.04.083.049s.053.085.042.119a.2.2,0,0,1-.113.1Zm-.11-.684c.051.036.046.067.1.15s.106.06.121.095a.111.111,0,0,1,0,.082.085.085,0,0,1-.082.067c-.021-.005-.019-.06-.023-.1s-.092-.046-.108-.066-.035-.253,0-.23Zm.126.15c-.019-.005.023-.043.023-.076s-.074-.078-.128-.1c-.034-.016-.021-.048-.009-.065s-.012-.1.019-.094a.2.2,0,0,1,.092.069c.015.022.054.037.094.086s.065.066.045.121A.11.11,0,0,1,8.769,8.338Zm.171-.314c-.058.011-.033-.03-.019-.041a.055.055,0,0,0-.007-.088c-.046-.028-.069-.056-.036-.08s.066-.019.127.05S9,8.013,8.94,8.024Zm-.082-.047c0,.024-.05.084-.091.07-.023-.008,0-.027-.016-.075s-.068-.042-.1-.057A.215.215,0,0,1,8.535,7.8c-.024-.068.046-.059.046-.059.064,0,.065.034.069.04a.194.194,0,0,0,.1.078c.07.03.113.08.113.115ZM8,7.409c.011,0,.012.062.021.076s.029-.057.043-.061.01.048.017.068.078-.084.1-.081-.044.082-.049.1a.066.066,0,0,0,.013.059c.039.025.06.008.059.033s-.015.008-.047.028-.033.032-.058.03a.165.165,0,0,1-.081-.03.1.1,0,0,1-.058-.1c0-.058.01-.115.041-.12Zm-.031.4a.173.173,0,0,1,.08-.051.238.238,0,0,1,.09,0c.035.007.027.132-.037.186s-.129.048-.16.1a.094.094,0,0,0,.006.106c.017.019-.095,0-.108-.066a.138.138,0,0,1,.051-.115c.009-.01.006-.031.015-.054a.36.36,0,0,1,.062-.1Zm-.209.126c-.041.041-.029.064-.037.082s-.069.024-.08-.026A.339.339,0,0,1,7.8,7.721c.025-.013.107-.013.114.02.014.076-.111.149-.153.189Zm-.072.154c.04-.014.106.018.094.064s-.08.078-.091.111a.1.1,0,0,0,.013.1c.023.022-.046.011-.077-.024A.166.166,0,0,1,7.593,8.2a.184.184,0,0,1,.1-.117Zm-.069-.361c-.034.1-.087.076-.185.129-.039.021-.031-.041-.022-.072.015-.048.075-.073.113-.089s.047-.064.07-.06a.1.1,0,0,1,.024.092ZM7.343,7.7c0,.036-.091-.061-.051-.1s.056-.089.086-.113.057.019.062.073-.094.1-.1.143Zm-.05,1.5c0-.016,0-.087.038-.071.011,0,.021.031.027.043s-.007.038-.02.068,0,.079-.014.087-.056-.049-.058-.087.024-.023.026-.039Zm.624,1.967a1.771,1.771,0,0,1,.021.291,1.232,1.232,0,0,1-.068-.368c0-.066,0-.217.034-.238,0,0,0,.077,0,.126s.011.173.013.189ZM7.854,10.6c-.033.033-.031-.129-.03-.154,0-.11-.033-.39-.035-.442a.837.837,0,0,1-.006-.286c.019-.036,0-.151.1-.152.033,0,.075.079.1.087s-.026.113-.031.143-.014.032-.015.056a.344.344,0,0,0,.021.094c.013.057.01.536-.11.654ZM8.9,9.3c-.039.009-.02,0-.02,0a.075.075,0,0,0,.031-.067.169.169,0,0,0-.033-.086c-.016-.031-.013-.062.012-.072.051-.019.076.057.076.083s-.007.128-.066.141Zm.063-.33c0-.028-.043.015-.072-.023a.046.046,0,0,1,.023-.071c.042-.015.109.043.125.064s-.008.066-.026.075-.051,0-.05-.046Zm.048-.167A.2.2,0,0,0,8.941,8.7c-.033-.028-.04-.015-.048-.034s.035-.1.065-.1a.049.049,0,0,1,.03.022.114.114,0,0,1,0,.067c0,.015.027.015.054.04a.1.1,0,0,1,.018.09c-.005.021-.039.065-.047.023Zm.009-.263c.012-.014.03-.016.017-.044s-.1-.041-.118-.1c-.009-.025.014-.062.061-.062.023,0,.046.01.08.047a.1.1,0,0,1,.019.122C9.058,8.556,9.014,8.556,9.025,8.542Zm.088-.609c-.054,0-.045-.026-.064-.06S9,7.838,8.985,7.8A.051.051,0,0,1,9,7.746c.024-.021.051,0,.076.015s.084.057.09.084.01.087-.051.088ZM9.035,7.7c-.042,0-.039-.034-.054-.078s0-.08.02-.082.029.052.047.077S9.077,7.7,9.035,7.7ZM7.881,7.39c.015,0-.006.073,0,.081s.027-.038.027-.038.03-.052.044-.053.015.018,0,.044-.057.07-.055.1.025.084,0,.1c-.046.033-.063.02-.109-.011s-.045-.1-.063-.128-.022-.031-.056-.035-.022-.071-.018-.1.036-.034.036-.034c.034,0,.046.026.049.055s.026-.007.045-.031.015.1.034.1.036-.06.068-.054Zm-.6.468c.03-.007.074.04.046.072s-.121.07-.113.1S7.146,8,7.2,7.938,7.259,7.864,7.285,7.858Zm-.035.406c-.035.029-.049.1-.066.074a.162.162,0,0,1-.007-.114c.015-.07.054-.107.085-.094A.17.17,0,0,1,7.25,8.265Zm-.015-.527c-.01.026-.025.082-.057.066a.1.1,0,0,1,.015-.128C7.21,7.663,7.244,7.711,7.234,7.737Zm.007.666c.037-.023.058.063.037.1a1.475,1.475,0,0,0-.1.124c-.016.037-.042-.062-.026-.1A.369.369,0,0,1,7.241,8.4ZM7.153,7.94c-.007.033,0,.074-.049.095-.026.012-.026-.018-.029-.056s0-.081.023-.084.063,0,.054.046Zm-.089.245c-.018-.012.007-.071.023-.086s.036.018.037.031S7.094,8.2,7.063,8.184ZM7.1,8.4c-.023.052-.035-.021-.037-.033,0-.027-.013-.094.011-.1s.069.041.026.137Zm-.04.072c.02-.011.053.058.039.094s-.08-.024-.08-.046.027-.04.041-.048Zm-.038.28c0-.041.029-.05.046-.051s.03.007.031.047a.13.13,0,0,1-.039.1c-.014,0-.041-.054-.037-.094Zm.089.217c.019-.011.056.027.06.042s.029.062.02.076-.041.031-.078-.016c-.024-.03-.047-.076,0-.1Zm.081.227c.024,0,.033.041.028.064s.028.065,0,.064-.04-.02-.052-.049.005-.082.023-.08Zm.042.369c.008-.026.018-.109.052-.109s.031.307.01.333.01.309-.012.294a.947.947,0,0,1-.07-.317c0-.033-.011-.084-.014-.121,0-.021.026-.053.035-.079Zm-.105,1.375c-.011.048-.027.221-.043.212a.556.556,0,0,1,.007-.221.313.313,0,0,1,.066-.1c.015-.009-.019.064-.03.111Zm-.043.332a.345.345,0,0,1-.01.064c0,.03-.034.01-.034-.04,0-.016.011-.064.034-.067A.165.165,0,0,1,7.083,11.276Zm-.024.152c.034-.008.058-.136.086-.117s-.012.16-.05.17c-.081.022-.108.134-.117.1s-.03-.169,0-.182.028.04.079.027ZM7,11.765c-.083.043-.056.116-.077.115H6.839c-.018,0,0-.048.01-.061a.136.136,0,0,1,.1-.073c.024,0,.062.013.05.019Zm.356.107c-.009,0,0-.047.025-.093.014-.023.032-.055.057-.054l.069,0c.046-.006-.017.036-.046.061s-.011.083-.03.088a.227.227,0,0,1-.075,0Zm1.011,1.681a.042.042,0,0,0,.016-.047c-.006-.01-.024-.047-.011-.049a.379.379,0,0,0,.047-.012c.012,0,.059.082.036.1s-.1.015-.088.006Zm.325.061c0-.014.045-.007.075-.007s.024.016.027.026c.008.026-.032.025-.063.025s-.041-.02-.04-.044Zm.054-.063a.061.061,0,0,0,.009-.045c-.012-.023-.068-.086-.049-.087s.026-.007.046.007.061.049.064.068.014.059-.011.065-.067.01-.059-.009Zm.4-1.115c-.007,0-.009-.02.009-.021s.024.009.018.016a.026.026,0,0,1-.027.005Zm.11-.814c0-.015.007-.032.021-.03s.017.023.021.034a.2.2,0,0,1,.009.072c-.008.015-.022.022-.039-.028a.111.111,0,0,1-.011-.048Zm.051-.144c-.014.013-.022,0-.026-.014s.021-.049.011-.079-.028-.071-.016-.073.046.068.046.094,0,.059-.015.071Zm-.052-.039c0,.01-.011.03-.02.023s0-.075-.021-.1,0-.031.021-.031S9.258,11.416,9.257,11.438Zm-.093-.051a.248.248,0,0,0,.045.143c.005.006,0,.03,0,.036s.01,0,.015-.012.044-.011.055.018a.088.088,0,0,0-.06.018c-.008.008-.027.043-.006.06s.047.054.024.054-.049.01-.057-.025-.006-.052-.016-.108c-.006-.033-.027-.045-.046-.1s-.047-.075-.014-.108c.017-.017.061-.013.059.022Zm-.039-.1c-.008.026-.1,0-.125-.025a1.6,1.6,0,0,1-.019-.413c0-.022.013-.132.056-.138s.048.071.058.1a3.632,3.632,0,0,1,.029.471Zm-.094-.935a.845.845,0,0,1-.125.306c-.018,0-.028-.076.014-.354a.593.593,0,0,0,.015-.092c-.021-.093.017-.08.03-.124s-.03-.044,0-.09,0-.436.067-.453c.028-.007.065.162.036.433a3.507,3.507,0,0,0-.041.374ZM9.073,9.3c.009.017-.052.01-.052-.043s.036-.1.063-.1.036.052.025.079S9.064,9.283,9.073,9.3Zm.312.22c-.013.013-.08-.056-.037-.1.026-.025.066,0,.072.025s-.014.052-.035.072Zm.034-.681a.1.1,0,0,0,0,.1c.026.047-.014.021-.014.021s-.043-.01-.053-.106a.266.266,0,0,1,.056-.188c.041-.043.064-.131.023-.126-.018,0,0,.1-.049.107S9.31,8.6,9.312,8.54s0-.081-.016-.1-.044-.019-.046-.033.02-.04.057,0c.017.018.017.018.051-.009a.053.053,0,0,1,.083.007c.013.029-.079.112-.07.143s.051-.1.1-.083.007.093.032.107a.138.138,0,0,1,.015.154c-.031.066-.076.068-.1.11ZM9.325,7.084c-.021,0-.066-.045-.028-.075a.5.5,0,0,1,.075-.063c.055-.03.008-.051.07-.066a1.15,1.15,0,0,1,.127-.037.217.217,0,0,1,.12.071c.022.016-.044.077-.106.1-.09.034-.151,0-.178.03s-.069.042-.015.08c.022.016.007.021-.027.019-.051,0-.02-.057-.038-.06Zm-.055-.292c.011-.054.068-.076.082-.085s0-.066.018-.063a.458.458,0,0,0,.141-.008c.058-.016.1-.087.1-.058a.383.383,0,0,1-.065.211c-.026.035-.081,0-.121.009s-.066.015-.072.05,0,.054-.028.047a.081.081,0,0,1-.056-.1Zm.159.372a.209.209,0,0,1,.148-.073c.03,0,.022.1.044.122s-.023.045-.061.066-.083.025-.089.035c-.026.044.027.074,0,.089s-.076.008-.088-.022a.233.233,0,0,1,.051-.218Zm0,.352c.009-.025.082-.059.093-.077s-.009-.036,0-.059.051-.03.075-.043a.1.1,0,0,1,.078.007c.041.023.024.066-.026.114s-.136.074-.128.091a.077.077,0,0,1-.01.082c-.025.035-.039.024-.059-.006A.116.116,0,0,1,9.43,7.517Zm.051.391c.02,0,.031.043.031.074s-.066.1-.1.142c-.017.021-.045-.062-.033-.085S9.44,7.906,9.482,7.907Zm.052.48c.072.045.086-.074.106-.127s.048-.047.07,0c.033.069-.015.1-.025.146-.031.148-.077.052-.067.122s.032.116,0,.116-.082-.07-.079-.111.025-.079.01-.094c-.036-.037-.094-.051-.109-.137s.051-.217.1-.217c.018,0,.042.028.043.059s-.071.113-.086.152a.072.072,0,0,0,.03.093Zm-.155-.248c.028.008.026.04.014.087a.226.226,0,0,0-.012.117c.011.02-.048.011-.059-.061s.026-.153.056-.144Zm.494-.719c-.053.02-.079.043-.075.077s.031.041.044.053.008.025-.049.026c-.034,0-.04-.04-.056-.078s-.015-.06.031-.1a1,1,0,0,0,.16-.165c0-.019-.033-.032,0-.047s.105-.1.127-.08.02.068.02.089a.27.27,0,0,1-.061.145.326.326,0,0,1-.14.08Zm-.634-.7c.009-.006.026-.01.012.04a.854.854,0,0,0-.019.2c0,.011-.011.015-.012.022S9.213,6.992,9.2,7c-.057.041-.061.105-.053.1a.666.666,0,0,1,.071-.08c.015-.009.023.018.023.035a.342.342,0,0,1-.021.111c-.021.055-.06.071-.072.133a.294.294,0,0,0,0,.136c.027.063.024.04.023-.017a.184.184,0,0,1,0-.081.519.519,0,0,1,.044-.075c.022-.031.036-.06.064-.056s.035.1.03.13a.785.785,0,0,1-.02.087c-.02.079-.064.04-.081.124-.011.053,0,.109.011.109s.02-.085.112-.15c.007-.005.047.005.035.064,0,.018-.037.013-.017.038s-.028.049-.039.089-.062.06-.052.069c.042.034.023.156.042.117.031-.065.075-.155.115-.156.019,0,.025.059-.025.14C9.331,7.97,9.33,8,9.309,8c-.041,0-.047-.047-.043-.122,0-.06-.052-.072-.085-.135-.015-.029-.005-.122-.034-.223s-.064-.1-.076-.169.058-.158.04-.2a.087.087,0,0,1,.009-.083c.027-.043.051-.067.051-.11a.464.464,0,0,1,.069-.233ZM8.649,5.468a.254.254,0,0,1,.171-.029c.069.012.1.05.09.093s-.067.086-.137.117c-.044.019-.044.04-.028.052s.052,0,.073.009c.065.026.084.089.1.092s.033-.022.011-.056-.068-.068-.071-.1.033-.057.079-.035.013.073.039.107a.2.2,0,0,1,.051.111.169.169,0,0,1-.064.125C8.916,5.988,8.94,6,8.946,6s.027-.03.053-.015.034.04.062.076.063.045.07.112a.181.181,0,0,1-.023.113c-.061.1,0,.069.028.1a.062.062,0,0,1,.014.063c-.008.055-.042.085,0,.138.017.02.018.053,0,.061s0,.108-.019.119-.06-.043-.057-.006.042.045.032.074-.042.037-.051.023a.383.383,0,0,0-.037-.071C9.013,6.78,8.988,6.757,9,6.8a.263.263,0,0,0,.022.047c.009.016.006.026.008.07s0,.057-.018.066-.088-.059-.091-.085,0-.05-.02-.078-.054-.1-.022-.144.045-.009.056.006c.033.047.039.008.018-.027s-.034-.015-.035-.051a.257.257,0,0,1,.052-.172.241.241,0,0,0,.047-.2,1.067,1.067,0,0,0-.1-.15.1.1,0,0,1-.031-.108c.013-.067.032-.142.014-.146s-.071-.083-.1-.074A.245.245,0,0,1,8.645,5.7a.081.081,0,0,1,.046-.118c.072-.035.095.024.1-.008a.046.046,0,0,0-.058-.054c-.04.009-.063.008-.081.042s-.033.078-.056.079-.034-.035-.031-.052a.206.206,0,0,1,.085-.117Zm-.221.085a.223.223,0,0,1,.033-.106.145.145,0,0,1,.108-.066c.042,0,.029.052.023.073a1.127,1.127,0,0,0-.061.138c-.013.038-.054.071-.075.061S8.424,5.618,8.429,5.553Zm-.411.122a.072.072,0,0,0,.016-.045.145.145,0,0,0-.045-.08.113.113,0,0,1-.031-.094A.055.055,0,0,1,8,5.4a.087.087,0,0,1,.077.02.107.107,0,0,1,.026.111.394.394,0,0,1-.03.094.077.077,0,0,0-.008.041h0a1.011,1.011,0,0,1,.123-.01s-.01-.014-.012-.046a.085.085,0,0,0-.014-.056.121.121,0,0,1,0-.129.067.067,0,0,1,.065-.02c.032.015.031.077.031.079a.435.435,0,0,1,0,.112c-.022.044-.038.04-.028.059h.021l.065.005h0s.016-.011.009-.045-.028-.044-.036-.085A.169.169,0,0,1,8.3,5.426c.018-.036.035-.042.052-.042s.058.017.062.09-.024.07-.036.117c-.007.027-.009.052.011.07s.008.01,0,.011l.069.014c.3.069.356.181.375.218.044.082.033.183.056.2a.219.219,0,0,1,.063.117c.01.076-.109.107-.133.159s-.027.045-.046.039c-.066-.02-.092-.167-.152-.19-.029-.011.137-.061.183-.116s.018-.029-.083.009c-.075.028-.216.085-.3.029s.009-.2.069-.239a.148.148,0,0,1,.216.031c.086.084.088.09.1.086a.4.4,0,0,0-.154-.187c-.1-.037-.2-.026-.322.147-.07.1.028.129.045.2.022.1-.036.074-.049.09s-.019.016-.07.017-.044,0-.072-.019-.1.016-.08-.084c.014-.074.075-.09.032-.2a.229.229,0,0,0-.323-.15.647.647,0,0,0-.19.167.428.428,0,0,0,.145-.091.163.163,0,0,1,.211,0,.138.138,0,0,1,0,.211c-.082.058-.144.025-.221,0a.6.6,0,0,0-.167-.04c-.048.008-.012.022.006.021a.17.17,0,0,1,.073.02c.021.01.048.047.088.063.057.024.128.009.115.021-.032.03-.084,0-.129.152-.008.027-.032.032-.053.05a.2.2,0,0,1-.009.035c-.011.037-.018.016-.018.05s.045.015.038.088c0,.04.018.069-.028.053-.028-.01-.036-.068-.078-.056-.017,0,0,.03.025.041a.068.068,0,0,1,.034.05c.011.065-.012.092-.01.139s.014.056.061.066a.217.217,0,0,1,.126.051c.033.037.007.081-.007.106s-.034.013-.059-.014.006-.062-.085-.085c-.065-.016-.066-.013-.092-.03s-.019-.064-.021-.106c0-.064.035-.029.028-.083S7.559,6.7,7.55,6.647s0-.06.039-.093.035-.05.035-.05l0-.1c-.067-.072-.16-.1-.168-.209,0-.039.033-.082.083-.123.024-.02-.014-.12.019-.2a.724.724,0,0,1,.452-.2l.013,0h0ZM7.8,5.446c.019-.038.082-.047.122.021a.162.162,0,0,1,.015.128.1.1,0,0,1-.038.066s-.018.006-.015-.016-.045-.065-.064-.093A.105.105,0,0,1,7.8,5.446Zm-.6.889c0-.036.024-.06.056-.045A.114.114,0,0,1,7.3,6.4a.081.081,0,0,0,.045.088c.026.008.044-.015.048-.056A.267.267,0,0,0,7.341,6.3c-.034-.049-.08-.037-.1-.1-.029-.112.011-.125.016-.17s.021-.1.057-.1.065.024.061.088c-.009.131.01.037.018.02a.347.347,0,0,0,.033-.072.116.116,0,0,0-.037-.107.1.1,0,0,1-.023-.084c0-.027.017-.031.042-.046s.024-.037,0-.042-.027.009-.043.015c-.031.013-.025-.065-.026-.1a.089.089,0,0,1,.063-.087c.047-.023.059-.008.088,0a.073.073,0,0,0,.075-.021c.017-.019.025-.042.059-.048s.045.006.092.039a.264.264,0,0,1,.085.125c.018.036.02.054.011.073a.028.028,0,0,1-.044-.007.52.52,0,0,0-.049-.066c-.02-.022-.029-.052-.065-.059s-.046-.02-.012.014a.41.41,0,0,1,.077.1c.014.035-.011.029-.019.03a.177.177,0,0,1-.061-.058.082.082,0,0,0-.071-.039c-.025,0-.049.039-.074.041s-.04-.009-.056,0,.046.024.057.043,0,.015-.028.046.027.026.052.022.043-.042.047-.056-.014-.059,0-.069.044.036.052.055.014.072,0,.082a.736.736,0,0,0-.15.181.262.262,0,0,0,0,.145c0,.031-.046.088-.059.117a.3.3,0,0,0,0,.16c.016.04.051.1.065.131a.076.076,0,0,1-.018.088c-.042.042-.034-.039-.054.01a.2.2,0,0,1-.127.1.073.073,0,0,1-.08-.032c-.013-.015.013-.037.037-.054s.021-.041.022-.068-.03-.044-.052-.072-.01-.1-.009-.13ZM7.192,7.2c.034-.009.041.267-.011.29-.019.008-.019.057-.014.1s-.033.025-.059.082-.02.1-.045.082-.012-.057-.011-.1A.281.281,0,0,0,7,7.509c-.029-.053,0-.064.041-.06s.062.125.078.091a.229.229,0,0,0,0-.1c0-.02-.021-.022-.052-.059a.171.171,0,0,1-.007-.113c.007-.038-.023-.021-.037-.093-.006-.031.034-.05.046-.038s0,.037.035.055.044.029.043.059c0,.047.018.059.018.059.015-.015-.007-.1.021-.1Zm-.017-.075c0,.013-.044.01-.058-.05s-.065-.027-.077-.093a.106.106,0,0,1,.041-.1c.021-.022.064.061.08.115A.363.363,0,0,1,7.175,7.125Zm-.013-.285c-.008.025-.046.037-.048.016a.085.085,0,0,0-.022-.078c-.023-.022-.024-.059-.049-.069-.05-.022-.06-.048-.047-.063s.066,0,.1-.03.021-.076.031-.1.018-.016.024,0a.171.171,0,0,1,0,.109c-.016.032-.041.05-.011.088a.147.147,0,0,1,.018.122Zm-.187-.728a.136.136,0,0,1,.119.046c.059.069.065.139.048.115s-.071-.045-.114-.069C7,6.192,7.013,6.166,7,6.15s-.039-.036-.029-.037Zm-.25-.035c.049-.025.232.07.2.081a.319.319,0,0,1-.189,0c-.019-.016-.034-.074-.015-.084ZM6.7,6.427c.037.033.028.11.1.12.02,0,.056-.011.073.007a.162.162,0,0,0,.124,0c.018-.017-.01-.074-.064-.084s-.134.009-.188-.029a.1.1,0,0,1-.028-.127c.016-.023-.029-.053.021-.09.069-.051.176-.013.234.01a.714.714,0,0,1,.168.122.118.118,0,0,1,.01.123c-.015.029-.058,0-.075-.055a.349.349,0,0,0-.091-.137c-.018-.014-.059-.014-.06,0s.055.054.078.086c.058.081.1.191.027.233-.026.015-.119-.01-.1.01s.01.056.032.073a.123.123,0,0,1,.064.135.085.085,0,0,1-.1.07c-.025,0,.023-.129-.027-.124s-.134-.017-.155-.076-.04-.034-.058-.045A.033.033,0,0,1,6.688,6.6a.118.118,0,0,0,0-.129c-.028-.029-.016-.069.017-.039Zm-.564-.341c.057.009.069.091.08.018,0-.028-.044-.053-.063-.065S6.154,6,6.17,6c.047,0,.074.06.1.049.09-.032.118-.115.232-.107s.1.084.1.125c0,.022.06,0,.058.119,0,.1.032.027.02.11,0,.011-.026.008-.022.019.03.074-.023.083-.046.09s-.035.028-.023.038c.042.035.068.067.04.089s-.122-.013-.071.023.111.19.047.232c-.041.027-.08-.054-.142-.064-.024,0-.024.023.006.049s.114.071.118.151a.193.193,0,0,1-.071.161C6.469,7.1,6.48,7.06,6.5,7.029s.029-.033.009-.05-.005-.034-.025-.044c-.045-.024-.093.01-.148-.042-.026-.024-.028-.082,0-.086s.04.032.07.028.037-.09.012-.106A.2.2,0,0,0,6.294,6.7c-.022,0-.04-.037-.024-.037a.233.233,0,0,0,.206-.122.313.313,0,0,0-.044-.224.176.176,0,0,0-.083-.072c-.027-.011-.072,0-.061,0a.19.19,0,0,1,.1.312c-.116.089-.178.041-.144.02a.174.174,0,0,0,.1-.141c0-.035-.07-.089-.155-.1s-.141-.035-.155-.118a.1.1,0,0,1,.106-.126Zm-.6,1.161c-.008,0-.021-.045.018-.1.023-.031.06-.068.031-.058s-.07.029-.08.051c-.028.065-.044.03-.03-.007a.3.3,0,0,1,.089-.11.815.815,0,0,1,.117-.036c.04-.015.107-.079.133-.084s.031.01.026.03S5.824,6.963,5.8,7a1.124,1.124,0,0,0-.091.124c-.01.021-.039.024-.073.025s-.034.013-.052.04-.035.063-.042.061Zm.318-.075a.553.553,0,0,1-.1.067c-.018.007-.027-.018-.023-.025.013-.024.085-.055.1-.063S5.862,7.167,5.857,7.172Zm.018.11a.022.022,0,0,1-.03.023c-.019-.006-.037-.017-.036-.03a.037.037,0,0,1,.024-.027c.011,0,.038.022.042.034Zm-.143-.1c-.017.027-.046,0-.028-.018s.071-.066.093-.069c.007,0,.024.008.02.014s-.06.035-.084.074ZM5.6,7.266a.215.215,0,0,1,.029-.1.065.065,0,0,1,.038,0c.008.017-.012.036-.017.048S5.6,7.3,5.6,7.266Zm.088.207c-.018-.019.059-.034.007-.047s-.082-.089-.061-.1.046.1.081.057c.017-.02-.045-.06-.05-.094s0-.054.036-.045a.127.127,0,0,1,.059.116c-.011.066.033.016.022.026s-.016-.089,0-.076a.211.211,0,0,1,.027.082c0,.017.04-.034.059-.042.037-.017.088-.024.11-.053A.076.076,0,0,0,5.984,7.2c-.016-.018-.068-.044-.088-.069s.008-.04-.015-.054-.029-.049,0-.043.1.1.116.126.082.12.073.145-.12.036-.148.048-.008.034-.042.047a.415.415,0,0,0-.059.032c-.009.005,0,.028-.046.033l-.018,0c.018,0-.051.03-.074,0ZM5.9,7.192c.009,0,.039.022.044.033s.017.042,0,.05-.055-.038-.059-.053a.03.03,0,0,1,.014-.03Zm-.123.362c-.029-.02.141-.159.159-.167a.245.245,0,0,1,.087-.01c.011,0,.041,0,.042.011s-.021.029-.056.025a.129.129,0,0,0-.083.033c-.037.023-.129.122-.149.108Zm.282.022c-.044.113-.024-.014-.034-.011-.03.008-.038.068-.057.087a.158.158,0,0,1-.11.02c-.024-.006-.006-.085,0-.1.032-.07.044-.087.069-.087a.358.358,0,0,0,.111-.012c.015-.005.02-.033.044-.054s-.021-.049-.008-.056c.033-.017.036-.045.046-.082a.1.1,0,0,0-.041-.1c-.029-.02-.1-.089-.108-.122s-.1-.123-.051-.1a.156.156,0,0,0,.186.011.143.143,0,0,0,.066-.085c.007-.031-.021-.039-.029-.027A.12.12,0,0,1,6,6.917c-.049-.007-.048-.011-.014-.023s.044-.021.026-.033a.474.474,0,0,0-.234.009,1.171,1.171,0,0,1-.128.077c-.026.007-.069.015-.028-.022a.907.907,0,0,1,.09-.074c.023-.016,0-.1.017-.13s.031-.071.179-.071c.028,0-.025-.071-.065-.069-.019,0-.035-.067-.109-.066a.142.142,0,0,0-.094.061c-.023.037-.03.121,0,.119s.051.03.051.069a.1.1,0,0,1-.074.106.119.119,0,0,0-.083.1.1.1,0,0,1-.037.08A.084.084,0,0,1,5.364,7a.266.266,0,0,1,.114-.184c.034-.019.048.014.05-.037,0-.032.025-.088.053-.1.012,0-.005-.115.008-.143a.329.329,0,0,1,.158-.121.282.282,0,0,0,.135-.049c.029-.031.037-.091.063-.091.05,0,.068.071.116.093s.133.05.153.088c.045.087-.051.09-.06.1-.077.083-.2.034-.2.052s0,.026,0,.027c.043.006.126-.013.172.009a.148.148,0,0,1,.1.134c0,.027.08-.024.019.08a.23.23,0,0,0-.022.082.292.292,0,0,0,.022.189c.039.069.014.084-.017.125-.053.07.017.2-.023.2a.153.153,0,0,0-.147.117Zm-.366-.964c.009-.02.077-.02.092-.009s.02.034,0,.037c-.059.009-.05-.013-.063-.014S5.689,6.619,5.692,6.611Zm.377,1.733c.02-.017.063.028.064.053s.014.081.051.074.094-.066.034-.117.014-.044-.092-.135c-.035-.03-.058-.146-.009-.158s.092.074.107.091.016.047.076.037c.019,0,.025-.058-.014-.1a.431.431,0,0,1-.108-.16c-.015-.054.016-.076.043-.062s.077.087.119.087.034-.025.043-.056-.082-.077-.117-.11a.126.126,0,0,1-.043-.1.2.2,0,0,1,.061-.13c.023-.015.063.018.069.035s.043.039.043.039.006.028-.019.024c-.042-.007-.051.007-.05.021a.13.13,0,0,0,.045.073.9.9,0,0,1,.1.074.159.159,0,0,1,0,.118c-.036.014-.01.037-.048.052A.236.236,0,0,1,6.3,8c-.017,0,.046.055.071.062a.118.118,0,0,1,.06.125c-.009.04-.019,0-.034.046s-.12.026-.159-.01c-.011-.01-.04.006,0,.048s.107.068.109.111a.122.122,0,0,1-.055.1c-.026.016-.068.011-.077.043s.038.051.038.07a.177.177,0,0,1-.087.086c-.023,0-.02-.023.011-.053s0-.057-.024-.092-.083-.044-.1-.083a.115.115,0,0,1,.018-.113Zm.046.516c.025-.017.024-.036.019-.065s-.077-.086-.084-.131-.022-.08-.005-.076c.046.01.054.079.1.113s.091.106.064.146c-.049.073-.142.045-.094.013Zm.27.224c-.008.011.013.076,0,.111a.079.079,0,0,1-.091.045c-.029-.009.047-.039.052-.067a.081.081,0,0,0-.048-.087.137.137,0,0,1-.083-.1c0-.024.025-.037.051,0a.138.138,0,0,0,.1.056c.048,0,.071-.02.076-.034.017-.054-.045-.075-.073-.1a.167.167,0,0,1-.052-.089c-.006-.026-.019-.068,0-.084.034-.036.068.016.069.036s-.012.042.006.052a.308.308,0,0,1,.114.119.091.091,0,0,1-.026.128C6.443,9.089,6.393,9.074,6.384,9.084Zm.087.451c-.06.01-.077-.027-.054-.051s.045-.022.046-.046c0-.04-.027-.043-.03-.089,0-.029.044-.024.044-.024.039.013.04.084.041.142A.071.071,0,0,1,6.471,9.535Zm.061-.686c.011-.025.039-.1,0-.131a.225.225,0,0,0-.1-.048c-.031,0-.058-.045-.07-.072-.024-.052.018-.115.046-.111.056.009.039.09.092.1s.062-.082.048-.11c-.026-.051-.133-.078-.12-.178.006-.045.028-.042.049-.041.043,0,.064.047.1.049s.053-.045.047-.085-.142-.116-.158-.142.038-.091.069-.105.048.054.09.071.048,0,.059-.017c.033-.062-.107-.088-.148-.193-.017-.043.05-.091.092-.111s.071.058.1.052a.046.046,0,0,0,.02-.061c-.043-.049-.1-.048-.117-.069-.032-.052-.065-.2,0-.2.022,0,.074.1.147.09.03,0,.041.01.041.04s.032.061.053.094a.127.127,0,0,1-.046.146c-.049.032-.113,0-.14-.018-.009,0-.02.036.044.06s.122.151.057.2-.138.025-.152.04.013.019.034.031.016.026.03.043.074.023.043.1-.159.087-.141.108c.053.061.075.07.073.107a.141.141,0,0,1-.1.122c-.04.007-.071.008-.015.045.031.02.115.037.078.128s-.109.09-.1.066Zm.042,1.239c0-.029-.012-.05-.023-.143s-.02-.377.018-.391.094.175.1.219a.65.65,0,0,1-.014.128,2.052,2.052,0,0,1,0,.3c-.013.04-.013.07-.037.071s-.036-.131-.041-.188Zm0,1.338a.154.154,0,0,0,.144-.035.188.188,0,0,0,.067-.126A.949.949,0,0,0,6.8,11.1c0-.023-.022-.01-.027.064a.168.168,0,0,1-.041.112c-.015.02-.029.045-.045.019-.028-.044.017-.1.034-.168.011-.042-.02-.141-.044-.06-.019.065,0,.205-.058.233-.024.012-.066-.007-.041-.064a.692.692,0,0,0,.037-.121c.011-.041.027-.1.029-.122s0-.045-.021-.045-.019.05-.022.079c-.008.072-.016.162-.039.138a.488.488,0,0,1,.012-.194c.007-.038.019-.082.03-.13s0-.1.013-.139a.607.607,0,0,0,.046-.121,1.217,1.217,0,0,1,.043-.132.814.814,0,0,0,.018-.389,1.982,1.982,0,0,1-.03-.5c.012-.021.082-.025.11-.048s.035-.072.045-.084c.027-.034.077-.046.135-.108.018-.019,0-.122.052-.13s.068.085.045.122.08.089.088.141-.021.026-.015.133a4.511,4.511,0,0,0,.051.5c.01.057.029.112.044.185s-.034.1-.017.206a.121.121,0,0,1-.026.1c-.046.061-.084.086-.091.178-.01.129-.082.252-.071.147,0-.03.007-.129-.01-.106a1.53,1.53,0,0,1-.059.212c-.04.067-.02.1-.021.177,0,.046-.087.079-.07.141.012.042-.083.155-.145.216-.026.026,0,.035.041.015s.078-.06.082-.053-.036.1-.1.115a.326.326,0,0,0-.093.016.8.8,0,0,0-.073.05.116.116,0,0,1-.08.027c-.018,0-.041.052-.056.021a.613.613,0,0,1,.016-.088c-.005-.035-.028-.043-.034-.029s0,.07-.033.069-.046-.07-.015-.1a.066.066,0,0,1,.073-.023c.026,0,.046-.017.012-.042a.083.083,0,0,1-.019-.108c.033-.035.031-.011.109,0Zm-.211.449c0,.028-.083.028-.086.01-.006-.037.046-.1.062-.1s.049-.013.048,0A.276.276,0,0,0,6.365,11.875Zm-.06-.46c.026-.05.057-.065.077-.066.042,0,.046.015.073.046,0,.006-.012.01-.038.032s.016.1,0,.115-.094.095-.1.046a.973.973,0,0,0-.031-.115c-.006-.022,0-.022.022-.059Zm.023.3a.087.087,0,0,1-.094.068c-.029-.006.02-.048.032-.078s-.049-.1-.054-.038-.039.019-.025-.032a.049.049,0,0,1,.075-.025C6.3,11.625,6.345,11.649,6.328,11.712Zm-.114.168c.008.028,0,.035-.033.035s-.061-.031-.029-.071a.1.1,0,0,1,.09-.051c.017,0,.034.035.016.038-.035.006-.051.029-.044.05Zm-.094-.215c.026-.007.041.03.044.051s-.026.021-.021.035.008.051-.007.058-.07.013-.084-.007,0-.032.028-.04.023-.048.023-.048-.006-.041.017-.047Zm-.081-.1c.031-.032.064.007.092-.013s.042-.055.061-.155.059-.095.065-.075-.017.06-.016.094a.206.206,0,0,1-.008.061.264.264,0,0,1-.045.069c-.013.016-.019.077-.059.092s-.121-.041-.09-.073Zm-.006.077c.01-.01.04,0,.04.01s-.019.017-.01.038,0,.039-.016.021-.022-.061-.014-.069Zm0,.256c.014-.062,0-.06.055-.066.026,0-.007.022-.008.048s.023.047,0,.047c-.047,0-.054,0-.047-.029Zm.075.965c-.039,0-.057.013-.066-.014a.2.2,0,0,1,.05-.1c.026-.023.1-.018.1-.018l-.005.031-.029,0c-.011,0-.022.021-.022.037,0,.037.008.065-.03.063Zm.01-.154c-.036.018-.058-.318-.036-.319s.1.093.1.112S6.151,12.69,6.116,12.708ZM5.987,12.1a2.833,2.833,0,0,1,.093.627.652.652,0,0,0-.066.087s-.044-.66-.027-.714Zm-.306.63a.278.278,0,0,0-.008-.155c-.007-.021.062.019.062.078s-.062.1-.054.077ZM5.759,13s0-.288.006-.372-.009-.4,0-.416a1.5,1.5,0,0,1,.036.327C5.8,12.6,5.8,13,5.759,13Zm.074.184c-.02.034-.019.02-.014,0a1,1,0,0,0,.05-.289c0-.116-.006-.447-.011-.487a1.027,1.027,0,0,0-.05-.252c-.009-.02-.044-.066-.043-.082,0-.04.026-.035.051-.006a.861.861,0,0,1,.079.34c0,.067.02.356.011.487a.883.883,0,0,1-.073.29Zm.063.157a.568.568,0,0,1,.022-.082c.01-.063.012-.19.018-.26s.006-.309,0-.4c0-.041-.013-.3-.023-.373a.955.955,0,0,1-.008-.16c.006-.036.047.107.06.2.008.058.011.3.011.345a2.627,2.627,0,0,1-.029.664c-.012.028-.046.08-.054.064ZM6.058,13a1.4,1.4,0,0,0-.024.246c-.007.082-.085.1-.069.079A.218.218,0,0,0,6,13.175c0-.069-.02-.239.008-.278.013-.019.054,0,.072,0,.042,0,.065-.013.065.033,0,.023-.073.032-.091.066Zm.155.355s-.035.038-.044.044.048.039.035.043a.063.063,0,0,1-.044,0c-.01-.007-.046-.045-.044-.059s.054-.037.069-.042.03.011.028.014ZM6.2,13.312a.161.161,0,0,1-.1-.1.148.148,0,0,1-.007-.092l0-.01a.018.018,0,0,0,0-.028c-.008-.006-.017-.055,0-.069a.365.365,0,0,1,.078-.046.145.145,0,0,0,.065-.024.036.036,0,0,0,.009-.038c-.006-.017-.024-.024-.039-.053a.243.243,0,0,1,.011-.158c.014-.02.041-.048.049-.062a.082.082,0,0,0,.007-.013c.007-.015.013-.042-.018-.039s-.043,0-.041-.054c0-.016,0-.058.017-.067s0-.056.013-.08.022-.075.006-.088-.016-.092-.015-.111-.033-.056-.049-.049,0,.033,0,.033a.056.056,0,0,0-.024-.016.113.113,0,0,1,.061.1c0,.077-.017.043-.035.083s0,.058-.015.072-.064-.042-.07-.064,0-.058.014-.069.013-.026.009-.052,0-.067.025-.069h0s-.014-.065,0-.077a.046.046,0,0,0,.025-.042.058.058,0,0,1,.014-.042c.006,0,.042-.015.047-.024a.057.057,0,0,1,.049-.029c.025,0,.033.006.059.007s.048,0,.064.013a.032.032,0,0,1,0,.047c-.019.015-.011.065,0,.066s0-.034.035-.054c.008-.005.023-.022.029-.022s.016.064.01.082.013-.028.033-.029.023.051.013.058a.112.112,0,0,0-.025.043c0,.029,0,.042.024,0,.007-.014.028,0,.03.007a.036.036,0,0,1-.012.046.062.062,0,0,0-.024.027c-.01.019,0,.045.018.037s.013-.035.023-.04.022.009.027.02a.018.018,0,0,1-.009.027c-.017.01-.041.042-.022.04s.052-.014.054-.01.012.03-.017.049a.155.155,0,0,0-.037.03.012.012,0,0,0,.007.021c.045.006.055-.026.076-.015s0,.048-.006.055-.064.04-.046.042a.168.168,0,0,0,.072-.024c.018-.011.01.03,0,.041s-.058.011-.066.023.023.034.065.018a.09.09,0,0,1,.04,0,.2.2,0,0,0,.059.022.172.172,0,0,0,.06-.017.166.166,0,0,1,.08-.014.209.209,0,0,1,.125.041.137.137,0,0,0,.092.022c.018,0,.075-.011.1-.054a.157.157,0,0,0,0-.131c-.023-.042-.041-.108,0-.144s.031-.057.036-.091.072-.078.089-.09a.072.072,0,0,0,.034-.05.039.039,0,0,1,.051-.028c.02.006.027.024.01.045a.258.258,0,0,1-.049.053c-.011,0-.048.02-.044.04s.029.019.045.046.007.051-.006.055-.035.014-.044.018-.016.016-.013.02.029.015.033.024-.008.025-.026.025a.013.013,0,0,0,0,.026.032.032,0,0,1,0,.057.033.033,0,0,0-.023.025.018.018,0,0,0,.014.022c.014,0,.012.029,0,.037s-.018.017-.016.033.015.039-.008.062a.109.109,0,0,1-.069.038c-.03.005-.037.019-.071.018s-.092.023-.123.016-.016.012,0,.026c.06.057.013.121.038.155.057.074.1.151.136.159a.42.42,0,0,1,.1.039c.017.015,0,.043-.007.052s-.017.036,0,.041.043-.011.058.01.031.065.049.086a.114.114,0,0,1-.007.1c-.018.006-.059.027-.082.015s.022-.048.018-.072a.236.236,0,0,0-.049-.087c-.021-.024-.066-.1-.1-.106-.049-.013-.142-.1-.18-.093a.447.447,0,0,1-.293-.126c-.028-.027-.021,0-.021.043a.057.057,0,0,1-.065.051c-.053-.008-.074-.055-.092-.074a.111.111,0,0,0-.063-.033c-.034-.009-.063-.1-.07-.1s.021.12,0,.139-.073.1-.122.111a.933.933,0,0,1-.114.024c-.027,0-.054.052-.023.068s-.005.117.007.127a.2.2,0,0,0,.063.014c.012,0,.016.026.023.045s.022.027.016.033-.014.01-.065,0Zm.123.068a.028.028,0,0,0,0,.049c.021.016,0,.024-.035.02a.04.04,0,0,1-.033-.055.082.082,0,0,1,.057-.043c.018,0,.031.023.015.029Zm.1,0c-.01.007-.037.022-.03.033s.03.025.015.028-.02.009-.035,0a.071.071,0,0,1-.024-.058.073.073,0,0,1,.049-.028c.016,0,.036.018.026.025Zm.072.25c-.011,0-.025,0-.019-.009s0-.013.013-.013.025,0,.025,0A.02.02,0,0,1,6.5,13.633Zm.026-.2a.028.028,0,0,1-.025.012.181.181,0,0,1-.058-.052c-.012-.017.05-.033.066-.033s.052.011.045.019A.251.251,0,0,1,6.5,13.4c-.007,0,.022.028.02.031Zm.043.2c-.016,0-.038,0-.028-.011s0-.015.02-.015.038,0,.038,0A.027.027,0,0,1,6.565,13.635Zm.1.091c-.006.029-.011.066-.013.074s-.036.009-.045-.018-.021-.086.019-.084C6.641,13.7,6.673,13.7,6.667,13.726Zm-.023-.09c-.018,0-.044.006-.032-.013s0-.018.023-.018.043,0,.043,0a.031.031,0,0,1-.033.026Zm-.007-.153c-.025,0-.09-.062-.079-.077a.3.3,0,0,1,.114-.048c.026,0,.059,0,.042.015s-.054.03-.067.041.037.043.034.052-.019.017-.044.016Zm.092.152c-.018,0-.044.006-.032-.013s0-.019.023-.019.043,0,.043,0A.031.031,0,0,1,6.729,13.636Zm.1.167c0,.013-.013.02-.034,0s-.039-.108-.01-.113.046-.006.051.016S6.825,13.778,6.829,13.8Zm-.017-.163c-.018,0-.044.007-.032-.015s0-.021.023-.021.043,0,.043.005A.032.032,0,0,1,6.812,13.639Zm-.024-.22c0,.014.033.053.029.061a.068.068,0,0,1-.059.008c-.017-.009-.051-.053-.044-.064a.275.275,0,0,1,.1-.067c.022,0,.041.011.035.016s-.059.031-.057.045Zm.058.014a.157.157,0,0,1,.077-.065c.007,0,.043,0,.035.006s-.047.033-.047.043.032.07.024.074-.045.014-.054,0-.042-.042-.035-.059Zm.034.192c0-.009.005-.022.025-.022s.048,0,.048.006a.036.036,0,0,1-.038.032c-.02,0-.049.007-.036-.016ZM7,13.815c-.051.03-.068-.027-.07-.068s-.011-.057.007-.059a.051.051,0,0,1,.048.019c.01.013.054.086.016.108Zm.02-.171c-.021,0-.052.008-.038-.017.005-.009.005-.024.027-.024s.051-.005.051.006A.038.038,0,0,1,7.019,13.644Zm.054-.263c-.015.015-.051.026-.042.042s.054.071.036.077a.163.163,0,0,1-.071,0c-.021,0-.042-.051-.042-.066a.123.123,0,0,1,.077-.081C7.053,13.352,7.088,13.366,7.073,13.382Zm.09-.008c.015,0,.047.014.037.019s-.052.015-.051.037a.139.139,0,0,0,.027.073c.012.011-.027.016-.048.007a.127.127,0,0,1-.047-.07c0-.015.046-.058.082-.066Zm-.078.255c.006-.01.006-.025.029-.025s.056-.005.056.007a.041.041,0,0,1-.044.036c-.024,0-.057.008-.041-.017Zm.036.186c-.027-.011-.048-.124-.021-.127s.049-.008.062.006.02.11.027.121S7.148,13.826,7.121,13.815Zm.073-.188c.006-.01.006-.027.029-.027s.056-.006.056.007a.042.042,0,0,1-.044.038c-.023,0-.057.009-.041-.019Zm.089.189c-.03-.006-.041-.091-.033-.111s.034-.019.057-.018.036.082.06.108-.053.027-.084.021Zm.055-.169c-.023,0-.057.009-.041-.02.006-.011.006-.029.029-.029s.056-.006.056.008a.044.044,0,0,1-.044.041Zm.066-.018c.006-.011.006-.029.029-.029s.056-.006.056.008a.044.044,0,0,1-.044.041c-.024,0-.057.009-.041-.02Zm.107.189c-.033,0-.1.016-.1-.044s-.017-.079.01-.085.055-.007.069.008.06.118.022.121Zm0-.191c.006-.011.006-.03.029-.03s.056-.007.056.008a.044.044,0,0,1-.044.042c-.023,0-.057.01-.041-.021Zm.174.2c-.03.009-.088,0-.093-.015s-.04-.115-.02-.119a.17.17,0,0,1,.094.012C7.694,13.719,7.7,13.823,7.681,13.828Zm-.018-.175c-.033,0-.08.011-.058-.023.008-.013.008-.033.041-.033s.078-.007.078.009A.056.056,0,0,1,7.663,13.653Zm.082-.022c.008-.013.008-.034.041-.034s.078-.008.078.009a.057.057,0,0,1-.061.05C7.77,13.655,7.723,13.666,7.745,13.631Zm.1.2a.157.157,0,0,1-.093-.005c-.008-.009,0-.122.036-.118s.074,0,.087.006-.012.11-.031.117ZM8,13.822a.128.128,0,0,1-.091,0c-.009-.009-.021-.1,0-.1a.267.267,0,0,1,.093,0c.013,0,.024.094-.006.1Zm.131,0c-.024.007-.063.01-.067,0a.275.275,0,0,1,0-.1c0-.017.1-.013.1,0S8.171,13.811,8.133,13.821Zm.149,0c0,.014-.043.01-.067,0s-.032-.088-.032-.1.093-.016.1,0a.274.274,0,0,1,0,.1Zm.043-.225c-.012,0,.1,0,.1,0a.21.21,0,0,1-.03.066.51.51,0,0,1-.091,0C8.3,13.661,8.326,13.593,8.326,13.593Zm.112.228a.128.128,0,0,1-.091,0c-.029-.009-.04-.1-.027-.108a.386.386,0,0,1,.114,0c.025.007.012.094,0,.1Zm0-.212c.006-.014.045-.007.076-.007s.026.017.026.029c0,.031-.034.023-.064.026A.033.033,0,0,1,8.434,13.609Zm.161.221a.158.158,0,0,1-.093.005c-.019-.007-.045-.111-.031-.117a.345.345,0,0,1,.087-.006c.035,0,.044.108.036.118Zm-.034-.218c0-.014.045-.007.076-.007s.026.016.027.027c0,.031-.026.025-.06.025s-.044-.015-.042-.045Zm.181.206c-.005.019-.049.025-.079.016s-.06-.12-.026-.128a.2.2,0,0,1,.091,0c.021,0,.02.1.015.114Zm.047.016a.242.242,0,0,1-.015-.132c.014-.015.061-.005.075,0s0,.045.028.1-.058.049-.089.036Zm.046-.177c-.028,0-.019-.032-.021-.044s.033-.006.054-.006.016.014.017.023-.028.026-.05.027ZM9,13.83c-.03.008-.087.012-.085-.012s-.045-.106-.025-.107.119-.013.127.007.008.105-.017.111Zm.008-.215c0-.011.035-.009.057-.009s.015.016.015.026c0,.026-.021.025-.043.025A.031.031,0,0,1,9.01,13.614Zm.146.209c-.027.011-.068.014-.067.006s-.034-.1-.017-.118.086,0,.1,0S9.183,13.813,9.156,13.823Zm.048-.2c0-.016.031-.009.053-.009s.018.016.02.024-.022.013-.044.014-.031-.018-.028-.028Zm.052.211c-.024,0-.017-.026-.015-.06s-.01-.059-.006-.065.051-.008.072-.005.026.068.027.109c0,.026-.016.016-.077.022Zm.077-.183c-.026,0-.029-.018-.025-.028s.029,0,.049,0,.015.012.017.019S9.353,13.646,9.333,13.646Zm.047-.144c-.009.014-.027.05-.05.054s-.06,0-.056-.015.015-.037,0-.054-.074-.054-.041-.063a.1.1,0,0,1,.07,0c.034.011.083.058.074.072Zm.034-.261c0,.009-.016.016-.022.007A.053.053,0,0,1,9.4,13.19c.014-.011.014-.027.02-.03s.013.043,0,.046-.011.023-.007.036Zm.033.2a.138.138,0,0,1,.035.1c0,.017-.028.018-.047.016s.01-.022,0-.054c-.015-.047-.048-.054-.061-.066s.007-.019.012-.019a.09.09,0,0,1,.061.022Zm-.018.2c-.024,0-.028-.017-.024-.025s.028,0,.047,0,.014.011.016.017S9.449,13.643,9.43,13.643Zm.1.165a.1.1,0,0,1-.061.012c-.023-.012.015-.066.009-.1s.046-.011.064,0c.04.016.016.069-.012.089Zm-.024-.188c0-.008.025,0,.042,0s.013.01.014.016-.018.011-.034.011S9.5,13.628,9.506,13.62Zm.052-.109c-.013-.014-.055-.074-.032-.082a.086.086,0,0,1,.058.006.1.1,0,0,1,.027.076c0,.024,0,.043-.031.043S9.571,13.525,9.558,13.511Zm.105-.317v-.048h-.04c.01-.041.024-.085.037-.137a.4.4,0,0,0,.264-.017c.023-.01.029.009.023.017s-.055.018-.093.057v-.019H9.812v.029h.034a.254.254,0,0,0-.047.1.452.452,0,0,1-.07.137v0H9.687v.038H9.7c-.017.021-.03.034-.03.034a.074.074,0,0,1-.041-.034h.018v-.038H9.617a.211.211,0,0,1,0-.023s0-.006,0-.01h.031v-.047H9.61a.449.449,0,0,1,.011-.07v.037h.042Zm-.057.447c-.022,0-.025-.014-.022-.021s.025,0,.041,0,.013.009.015.015S9.623,13.641,9.606,13.641Zm.04-.213a.089.089,0,0,1,.065.006c.006.021.029.079.018.087s-.037.021-.048.012-.046-.1-.035-.1Zm.038.214c-.022,0-.025-.013-.022-.02s.025,0,.041,0,.013.009.015.014S9.7,13.642,9.684,13.642Zm.047.127c-.037.051-.076.049-.08.035s.037-.036.039-.064,0-.055.011-.056c.04,0,.056.05.03.085Zm.028-.128c-.019,0-.023-.011-.02-.017s.022,0,.036,0,.012.007.013.012S9.774,13.641,9.759,13.641Zm.024-.114c-.012-.016-.044-.1-.03-.109a.025.025,0,0,1,.035.008c.007.013.031.057.023.071s-.023.038-.028.031Zm.041.113c-.013,0-.014-.01-.012-.015s.015,0,.024,0,.007.006.008.01S9.833,13.64,9.823,13.64Zm.053-.127a.246.246,0,0,1-.032-.082c0-.015.011-.016.02-.017s.051.062.051.073S9.88,13.516,9.876,13.512Zm0-.19c-.009.02-.042.015-.1.017-.017,0-.008-.071.007-.083.059-.045.021-.065.056-.092a1.116,1.116,0,0,1,.126-.145c.018-.015,0-.02,0-.02s-.006-.081,0-.084.04-.062.037-.068-.02.025-.064.068a.249.249,0,0,1-.272.017c-.021-.02.007-.009.045-.078a.255.255,0,0,0,.028-.135.159.159,0,0,0-.034-.1.34.34,0,0,1-.106.28c-.013.012,0,.045.016.041s0,.112-.01.126a.139.139,0,0,0-.036.077.342.342,0,0,0-.012.085c0,.031.021.06.007.063s-.021.045-.018.054-.105.025-.121.007.02-.027.03-.037.009-.092,0-.1-.023-.032-.01-.038.028.026.035.032.022,0,.028-.011a.1.1,0,0,0,0-.076c-.013-.056-.077-.093-.07-.112s.018-.048.009-.054-.024.049-.041.054.018.055,0,.065a.055.055,0,0,0-.024.052.191.191,0,0,1-.043.1c-.018.017-.06.132-.1.128s-.1.013-.1-.009.071-.067.08-.088a1.265,1.265,0,0,0,.064-.157.14.14,0,0,1,.009-.083c.018-.035.06,0,.094-.046a.585.585,0,0,0,.092-.14c.011-.029.028-.12.038-.149.019-.053-.028.028-.042.059s-.021.062-.032.093a.327.327,0,0,1-.059.1c-.028.027-.07.03-.07,0a.2.2,0,0,1,.021-.034c0-.007.042-.082.077-.145.026-.046.089-.143.095-.159a1.054,1.054,0,0,0-.1.139l-.082.131a.035.035,0,0,1-.042.009c-.021-.009-.039-.037-.031-.054s.036-.036.05-.05a.957.957,0,0,0,.094-.1,1.2,1.2,0,0,0,.085-.144s-.089.119-.111.142a.532.532,0,0,1-.095.081c-.023.01-.042,0-.048-.008s.024-.018.039-.029.07-.065.08-.075.042-.041.059-.061c.034-.038.067-.106.055-.091s-.029.043-.046.061-.056.057-.092.091a.5.5,0,0,1-.061.049c-.015.007-.029.012-.038.006s0-.019,0-.028a.8.8,0,0,0,.084-.059c.006-.012-.054.019-.077.019s-.03-.02-.006-.032a.223.223,0,0,0,.068-.046c.02-.032.015-.04-.016-.028s-.019.013-.041.014-.037-.02-.019-.033a.132.132,0,0,1,.076-.03c.017,0,.068-.006.068-.017s-.038-.036-.07-.035-.019.007-.037.028a.079.079,0,0,1-.114-.013c0-.012.087.033.1-.014a.04.04,0,0,0-.026-.058.1.1,0,0,0-.051,0c-.03.016,0-.019.029-.026.017,0,.045-.017.032-.029s-.022,0-.031-.016-.026-.113.028-.146c.026-.016.03-.023.031-.037s-.027-.042-.036-.049a.031.031,0,0,1,0-.041c.008-.01.028,0,.02-.015a.055.055,0,0,1,.006-.05.116.116,0,0,1,.063-.037c.006,0-.018.054-.021.071a.083.083,0,0,0,.011.062.107.107,0,0,0,.05.031.089.089,0,0,0,.061,0,.123.123,0,0,0,.029-.028c.026-.046-.006-.07.005-.1,0-.007.028,0,.039.016a.088.088,0,0,1,.02.074c-.007.049.007.027.019.036s.022.017.023.032-.013.012-.015.021.01.039,0,.044c-.027.012-.011.04.012.033s.011.014,0,.023,0,.071-.021.1a.245.245,0,0,1-.057.054c-.027.015-.071,0-.084.006s-.022.021,0,.02a.031.031,0,0,1,.03.023.042.042,0,0,1-.008.041c-.017.016-.016.028,0,.022.034-.017.028-.032.055-.054a.337.337,0,0,0,.045-.026.161.161,0,0,1,.056-.029c.026-.01.022-.063.071-.084a.117.117,0,0,1,.094,0c.023.011.07.043.044.094a.166.166,0,0,1-.057.072c-.021.013-.019.055,0,.078s.019.037.037.05.03.014.069-.007a.133.133,0,0,1,.075-.026.339.339,0,0,1,.138.031.149.149,0,0,1,.066.064.317.317,0,0,1,.012.052.266.266,0,0,1,.021.069c0,.051-.023.065-.019.086s-.009.092-.023.093-.044.015-.042.038a.077.077,0,0,1-.013.054c-.011.014-.039.033-.066.066s-.016.047-.025.062a.16.16,0,0,0-.03.079c0,.029-.038.039-.045.056Zm-.653-.908c.023,0,.02.017.011.022a.037.037,0,0,1-.034-.006C9.188,12.424,9.21,12.415,9.219,12.415Zm.76.855c0,.021.007.062,0,.07s-.014,0-.021-.023a.2.2,0,0,1,0-.1c.011-.024.019-.035.04-.039s.027.016.02.037-.038.039-.035.06Zm.009.211s-.018.015-.021-.011-.062-.066-.035-.07c0,0,.029,0,.039.006a.315.315,0,0,1,.045.054c0,.007-.019.01-.029.021Zm.1-.027s-.022.008-.03,0a.042.042,0,0,1-.012-.023c0-.007-.039-.038-.037-.041a.078.078,0,0,1,.016-.013c.012,0,.053.037.058.049S10.095,13.45,10.089,13.455Zm.069-.028c-.015.011-.027.017-.032.011s-.007-.024-.015-.038-.027-.036-.014-.037a.053.053,0,0,1,.051.031C10.159,13.409,10.173,13.416,10.158,13.427Zm.063-.135c-.018.047-.044-.693-.044-.753a2.205,2.205,0,0,1,.012-.486c.014-.01.049.114.057.332A5.585,5.585,0,0,1,10.222,13.292Zm.02-1.607c.013,0,.024.015.024.044s0,.058-.006.061-.013-.026-.018-.045-.019-.057,0-.059Zm.1,1.281a2.612,2.612,0,0,1-.035.326c-.005.022-.032-.644-.032-.691,0-.03,0-.529.013-.522.045.025.045.261.045.361,0,.058.014.4.009.526Zm-.024-1.017a.027.027,0,0,1-.052-.011c0-.038-.027-.075-.013-.075a.071.071,0,0,1,.048.017.068.068,0,0,1,.018.069Zm-.259-.588a.109.109,0,0,1,.051.03c.015.017,0,.118.008.134s.037.041.177.11a.113.113,0,0,1,.022.073c0,.018,0,.066-.024.066s-.018-.013-.008-.054a.068.068,0,0,0-.021-.066.055.055,0,0,0-.049,0c-.018.011-.015.041-.01.079s.033.033.019.07c0,.006-.046.018-.057-.008s.01-.035.011-.044a.212.212,0,0,0,0-.094c-.016-.007-.092-.078-.091-.1s-.007-.067-.034-.08c0,0-.009-.078-.064-.105,0-.018.053-.018.072-.015ZM9.85,11.4c.031-.013.074.008.1.015.049.017.071.032.074.058a.745.745,0,0,0,0,.14.439.439,0,0,1,.023.082.281.281,0,0,1,0,.07c0,.012-.024.01-.039.007s.016-.069,0-.132a.132.132,0,0,0-.056-.054.285.285,0,0,1-.093-.131c-.006-.022-.028-.047-.006-.056Zm-.065.078c.009.048.007.09.03.112a.509.509,0,0,0,.111.072c.024.011.021.048.014.069-.014.042-.052.075-.047-.019,0-.031-.064-.044-.08-.03s-.015.061-.034.065-.029-.071-.007-.083a.24.24,0,0,0-.068-.176c-.032-.019.015.084,0,.125s0,.118-.057.111c-.1-.013-.164-.2-.2-.215-.021-.01,0-.087-.1-.2-.02-.02.01-.164-.026-.174s.005-.145-.033-.158-.014-.1-.078-.143a.205.205,0,0,1-.047-.094.466.466,0,0,0-.031-.119.317.317,0,0,1-.041-.262.134.134,0,0,0,.018-.116.275.275,0,0,1,.024-.194c.022-.026-.02-.284.03-.38.011-.021-.006-.048,0-.05.025-.01.017-.047,0-.06S9.141,9.5,9.135,9.47s-.029-.082,0-.1.028.051.06.068a.4.4,0,0,1,.124.1.178.178,0,0,0,.072.083.18.18,0,0,1,.093.112,1.424,1.424,0,0,1,.043.377c.007.1.026.15-.008.177s.019.16,0,.189a2.014,2.014,0,0,0-.008.5c.025.061.03.225.046.264s.036.116.088.139c.025.011.052.037.087.022s.046.042.052.076ZM9.509,9.6c.009-.006.037-.02.043,0s.006.046-.021.049S9.475,9.624,9.509,9.6Zm.182.7c0,.069-.082.423-.077.487s.092.24.085.3.076.17.08.208-.036,0-.062-.041a.429.429,0,0,0-.067-.1c-.021-.009.014.1.029.131s.09.1.079.107a.394.394,0,0,1-.148-.14,1.727,1.727,0,0,1-.064-.232,1.122,1.122,0,0,1-.011-.243c.014-.26.063-.5.059-.56a2.148,2.148,0,0,0,0-.348c-.014-.02-.031-.1,0-.124s.056.013.069.033a1.587,1.587,0,0,1,.032.522Zm.075-.812a.456.456,0,0,0-.065.088c-.009.025.009.033.022.047s.022.049.008.057-.1-.025-.1-.075.054-.073.033-.086-.09.014-.132,0a.089.089,0,0,1-.058-.081.17.17,0,0,1,.073-.144.029.029,0,0,1,.041.038c-.013.031-.074.045-.083.093a.059.059,0,0,0,.07.065c.043,0,.052-.028.115-.033s.1.009.076.036Zm.156-.344a.224.224,0,0,1-.073.105c-.021.019-.072.054,0,.111.024.018-.008.063-.063.016a.147.147,0,0,1-.016-.14c.015-.039.04-.059.093-.092s.023-.079.056-.078.012.036,0,.077Zm.01-.326a1.353,1.353,0,0,1-.013.137.22.22,0,0,1,.006-.3c.022-.031.032-.071.047-.063s.029.045.035.091-.076.092-.075.135Zm.106.136c-.01.032.037.061.059.084s-.013.024-.05.027a.1.1,0,0,1-.057-.08.214.214,0,0,1,.079-.179c.047-.035.04-.06.031-.081-.016-.037.061,0,.062.064,0,.106-.114.134-.124.165ZM10.19,8.3a1.3,1.3,0,0,1-.1.137c-.017.026.016.073.036.06s.073-.122.12-.136.047.028.04.074c-.011.071-.087.069-.112.125a.121.121,0,0,0,0,.073c0,.011-.03,0-.041-.011s0-.062-.015-.068c-.1-.053-.121-.117-.117-.143a.583.583,0,0,1,.108-.166c.033-.029.051-.082.079-.083s.026.1.011.138Zm-.077-.413a.108.108,0,0,0,.053.1c.032.02-.017.02-.03.013s-.077-.073-.11-.1.057-.044.056-.061,0-.046-.029-.028a.119.119,0,0,1-.125-.028A.19.19,0,0,1,9.9,7.6a.138.138,0,0,1,.071-.085c.014-.007.052-.012.053.022,0,.064-.038.083-.06.125s0,.126.05.126.034-.035.062-.037.036.078.031.134Zm.563-.447a.382.382,0,0,1-.11.085c-.02,0,.033.043-.008.044a.1.1,0,0,1-.073-.057c-.02-.034-.042-.087-.076-.086A.155.155,0,0,1,10.3,7.4a.081.081,0,0,1-.045-.049c-.005-.015.006-.029.041-.06a.217.217,0,0,0,.042-.055.806.806,0,0,1,.061-.119.5.5,0,0,1,.053-.06c.012-.009.027,0,.008.019a1.35,1.35,0,0,0-.086.157.573.573,0,0,0-.055.107c0,.032.035.025.052.021s.023-.068.043-.065.029.035.025.055c-.013.059.038-.016.055,0s-.036.109.034.046c.024-.021.033-.087.067-.067.018.011.032.029.023.039-.021.026-.073.052-.086.068s-.007.046.007.05c.03.01.058-.057.1-.076.023-.011.051.015.039.03Zm-.166-.223c.023.018.05.064.034.07s-.039-.035-.05-.045-.04-.013-.045-.017a.017.017,0,0,1,.008-.028A.092.092,0,0,1,10.51,7.215Zm.468-.167c-.005.027-.037.091-.068.077-.054-.024-.02-.092-.1-.119a.337.337,0,0,0-.118-.016c-.017-.007-.008-.036-.012-.059a.048.048,0,0,0-.03-.04c-.024-.007-.035-.041-.02-.045s.073.083.1.048c.014-.018-.029-.028-.019-.078a.107.107,0,0,1,.049-.067l-.006-.007c-.01-.015,0-.1-.012-.125a.2.2,0,0,0-.03-.045.051.051,0,0,0-.071-.011,1.746,1.746,0,0,0-.152.2c-.042.054-.057.047.064.108a.087.087,0,0,1,.045.122c-.005.023-.014.043.037.042a.315.315,0,0,1,.1.01.28.28,0,0,1,.133.1c.031.041.018.081-.006.068a.826.826,0,0,1-.1-.1c-.022-.018-.051-.042-.075-.029s.008.036.028.055.109.1.076.128-.07-.048-.087-.073-.036-.059-.064-.07c0,0,.025.049.03.057a.379.379,0,0,1,.035.1c.006.038.013.075-.016.076-.056,0-.028-.035-.063-.057a1.823,1.823,0,0,1-.119-.168c-.005-.017.013-.029.021-.021s.08.127.105.152c.05.051.016-.022.009-.052,0-.008-.031-.087-.034-.1s0,0,0,0a.569.569,0,0,1-.084-.094c-.051-.061-.131-.01-.141-.036.006.009-.02.041-.033.064a.462.462,0,0,0-.061.155c-.01.1-.046.058-.084.08s-.05.081.01.14.14.033.186.035.023.028.025.068a.217.217,0,0,0,.052.111c.017.023-.017.044-.062.062a.087.087,0,0,1-.106-.034c-.014-.02,0-.069-.039-.1s-.111-.056-.146-.094a.582.582,0,0,1-.01-.236c.009-.026-.029-.09-.006-.117s.1.033.133-.014c.012-.016.051-.047.065-.062.051-.056.072-.061.078-.054-.009-.023-.062,0-.1.013s-.134.027-.141,0,.021-.041.015-.1-.032-.064-.029-.1.019-.068.093-.073a.372.372,0,0,1,.169.029c.03.009.062.013.062-.007a.234.234,0,0,0-.126-.1.1.1,0,0,0-.081.014c-.02.012-.075,0-.078-.026s-.02-.031-.025-.067-.016-.089.055-.09c.046,0,.067-.1.116-.115a.143.143,0,0,1,.115.019c.224.122.274.06.316.134a.53.53,0,0,1,.043.083.394.394,0,0,1,.011.134c.025.01.014.077.054.1a.411.411,0,0,1,.087.076.177.177,0,0,1,.04.124Zm-.4-.223a.08.08,0,0,1-.068-.023.76.76,0,0,0,.121-.126c.03-.045.08,0,.072.036A.169.169,0,0,1,10.575,6.825Zm-3.925.28h0ZM9.4,12.311a.076.076,0,0,0,.05-.064c0-.023-.027,0-.041-.024s.012-.035.031-.053-.043-.023-.1,0-.074.1-.053.094.033-.026.04-.021-.009.011-.01.02a.03.03,0,0,0,.026.032c.01,0,.007-.013.01-.025s.01-.022.026-.017.01.032-.019.043-.007.032.036.013Zm.258.116a.034.034,0,0,0-.031.031c0,.016.031.011.039,0A.021.021,0,0,0,9.661,12.427Zm-1.978-6a.083.083,0,0,0-.016.019l0,0a.11.11,0,0,0,.02-.023ZM6.625,12.617c.018.009.021,0,.014-.018s-.04-.029-.041-.021.016.034.027.039Zm-.391-.6c-.019,0-.033.043-.024.056s.015,0,.015-.017.027-.038.008-.038Zm.231.475c-.015.036.008.069.02.069s.016-.04.017-.054.013-.06.006-.06-.034.024-.043.045Zm-.018-.089a.06.06,0,0,0-.023.068c.012.027.019.033.026,0a.071.071,0,0,1,.027-.041.051.051,0,0,0,.009-.067c-.007,0-.013.023-.038.044Zm-.173-.358c-.01-.01-.04.023-.028.05s.028.03.019-.014c0-.017.016-.029.009-.037Zm.113.267c0-.032.028-.037.033-.054s0-.051-.009-.032-.039.032-.043.055S6.385,12.334,6.386,12.316ZM7.662,6.45h0ZM6.3,12.149c.01.007.024,0,.015-.025s.013-.024.024-.03-.014-.015-.034,0a.035.035,0,0,0-.005.055Zm.031.085c0,.022.016.038.026.031s-.013-.022.012-.055,0-.072-.008-.054S6.324,12.194,6.329,12.234ZM8.2,5.657h0Zm.163.011h0ZM6.552,12.6c-.007-.019,0-.1-.013-.1s-.025.078-.022.1.043.024.035,0ZM6.413,12.4c.005-.017.018-.021.04-.046s.01-.064.006-.058c-.02.029-.036.028-.05.058s0,.069,0,.046Zm.911.49h.044v.034H7.324Zm-.1-.162H7.27v.034H7.226Zm.076.07h.044v.034H7.3Zm-.063.109h.044v.034H7.239Zm-.084-.092H7.2v.034H7.155Zm-.012-.087h.044v.034H7.143Zm.083.07H7.27v.034H7.226Zm.19.3H7.46v.034H7.416Zm-.77.188h.044v.034H6.646Zm.058-.178h.044v.034H6.7ZM6.646,13.1h.044v.034H6.646Zm-.076.1h.044v.034H6.57Zm.076,0h.044v.034H6.646Zm-.07.089h.044v.034H6.576Zm-.149-.1H6.47v.034H6.426Zm-.011-.093h.044v.034H6.416Zm.079.105h.044v.034H6.495Zm-.057.089h.044v.034H6.437Zm.065,0h.044v.034H6.5Zm0-.195h.044v.034H6.5Zm.513.11h.044v.034H7.016Zm-.083,0h.044v.034H6.932Zm-.218.088h.044v.034H6.714Zm.3,0h.044v.034H7.016Zm-.6-.277h.044v.034H6.416Zm.438.187H6.9v.034H6.853Zm-.139,0h.044v.034H6.714Zm.066-.092h.044v.034H6.781Zm.009.093h.044v.034H6.79Zm.064-.1H6.9v.034H6.853Zm0,.182H6.9v.034H6.853Zm-.064,0h.044v.034H6.79Zm.143,0h.044v.034H6.932Zm-.589-.015h.044v.034H6.344Zm-.081-.188h.044v.034H6.263Zm.081,0h.044v.034H6.344Zm0,.088h.044v.034H6.344ZM6.57,13.1h.044v.034H6.57Zm-.075-.089h.044v.034H6.495Zm.363-.938H6.9V12.1H6.858Zm0,.1H6.9V12.2H6.858ZM6.786,12h.042v.029H6.786Zm.072.3H6.9v.029H6.858Zm-.005-.317h.042v.029H6.852ZM6.8,12.4H6.84v.029H6.8Zm.06,0H6.9v.029H6.858Zm.157-.1h.042v.029H7.015Zm0-.127H7.06V12.2H7.018Zm-.065.292H7v.029H6.953Zm-.008-.394h.042V12.1H6.945Zm0-.092h.042v.029H6.949Zm-.234.092h.042V12.1H6.714Zm-.009.229h.042v.029H6.706ZM6.631,12h.042v.029H6.631Zm0,.074h.042V12.1H6.631Zm0,.107h.042v.029H6.631ZM6.708,12H6.75v.029H6.708Zm.078.181h.042v.029H6.786Zm0,.121h.042v.029H6.786Zm0-.229h.042V12.1H6.786Zm.232-.008H7.06v.029H7.018Zm-.294.332h.042v.029H6.724Zm-.009-.217h.042v.029H6.714Zm.234.214h.042v.029H6.949Zm.194-.329h.042v.029H7.143Zm0-.089h.042V12H7.143Zm.159-.006h.042V12H7.3Zm-.283.006H7.06V12H7.018Zm.083.49h.042v.029H7.1ZM6.949,12.3h.042v.029H6.949Zm.264-.325h.042V12H7.212Zm-.13,0h.042V12H7.082Zm-.133.195h.042V12.2H6.949Zm.133-.106h.042v.029H7.082Zm.01.106h.042V12.2H7.092Zm-.074.226H7.06v.029H7.018Zm0,.065H7.06v.029H7.018Zm2.068-.309h.042v.039H9.086ZM9,11.977h.042v.039H9Zm.076,0h.042v.039H9.077Zm.021.279H9.14v.039H9.1Zm-.021-.188h.042v.039H9.077Zm.066.857h.042v.029H9.143Zm0,.088h.042v.029H9.138Zm-.01.091h.042v.029H9.128Zm.09-.091h.042v.029H9.218Zm-.063-.2H9.2v.029H9.155Zm-.108.393h.042v.029H9.047Zm.01-.1H9.1v.029H9.057Zm-.081,0h.042v.029H8.976Zm.081-.09H9.1v.029H9.057Zm.06.195h.042v.029H9.117Zm-.06.1H9.1v.029H9.057Zm-.085,0h.042v.029H8.972Zm-.159.006h.042v.029H8.812Zm.163-.091h.042v.029H8.976Zm-.078.085H8.94v.029H8.9Zm-.009-.086h.042v.029H8.889Zm1.02-.922H9.95v.039H9.908ZM9.8,12.1h.042v.039H9.8Zm.1.1h.042v.039H9.9Zm.089.006h.042v.039H9.985Zm-.077.163H9.95v.039H9.908Zm.077-.086h.042v.039H9.985Zm-.077.161H9.95v.039H9.908ZM9.8,12.2h.042v.039H9.8Zm-.21-.2h.042v.039H9.591Zm.136.2h.042v.039H9.727Zm-.01-.1h.042v.039H9.717Zm-.064,0H9.7v.039H9.653Zm.034,1.148H9.73v.032H9.687Zm.008-.089h.042v.039H9.7Zm.021-.092h.042V13.1H9.717ZM8.476,7.149a.124.124,0,0,0,.07-.091.157.157,0,0,0-.012-.1c-.02,0,0,.067-.031.107S8.425,7.159,8.476,7.149ZM7.946,7a.1.1,0,0,0-.007.107c.023.031.05.038.055.029s-.023-.042-.04-.053S7.946,7,7.946,7Zm.246-.14c-.029,0-.006.054-.04.06s-.023-.055-.039-.049,0,.062.011.071.049.045.069.008.016-.09,0-.09Zm-.5-.781c.028-.008.073-.073.123-.091a.1.1,0,0,1,.113.045c.014.018.032.041.051.044s.026-.025.02-.026c-.025,0-.022-.073-.068-.1a.138.138,0,0,0-.122-.012.437.437,0,0,0-.127.085c-.036.027-.055.045-.055.045a.1.1,0,0,0,.065.014Zm1.045-.042c-.027-.017-.064-.091-.146-.09s-.128.1-.144.122.011.039.032.03c.049-.022.042-.092.122-.1.062,0,.082.06.126.065s.038-.014.011-.031Zm-.524,5.8a.752.752,0,1,0,.761.742A.752.752,0,0,0,8.214,11.838Zm.666.5a.057.057,0,0,0-.021.07c.009.031.032.052.054.049,0,.007,0,.014,0,.022a2.387,2.387,0,0,0-.279.03c-.119.018-.22.037-.264.049a.154.154,0,0,0-.008-.026c.044-.013.14-.05.25-.1a2.387,2.387,0,0,0,.253-.122l.011.027Zm-.087-.161a.068.068,0,0,0,.063.105l.009.021a2.36,2.36,0,0,0-.262.1c-.11.048-.2.092-.242.115a.153.153,0,0,0-.014-.024c.039-.024.122-.085.216-.159a2.423,2.423,0,0,0,.212-.182l.018.023Zm-.125-.133a.068.068,0,0,0,.088.086l.014.018a2.421,2.421,0,0,0-.226.165c-.094.075-.172.142-.2.174a.154.154,0,0,0-.02-.019c.031-.033.1-.113.167-.21a2.425,2.425,0,0,0,.158-.231l.023.017Zm-.331.542a.113.113,0,1,1-.115-.112.113.113,0,0,1,.115.112Zm.175-.638a.068.068,0,0,0,.107.06l.019.014a2.415,2.415,0,0,0-.176.218c-.072.1-.13.181-.152.221l-.024-.013c.022-.04.063-.134.108-.246a2.378,2.378,0,0,0,.093-.265l.026.011ZM8.336,11.9c0,.022.019.045.05.053a.057.057,0,0,0,.069-.023l.022.008a2.362,2.362,0,0,0-.114.257c-.044.112-.079.209-.09.253l-.027-.007c.011-.044.027-.146.04-.265a2.386,2.386,0,0,0,.021-.28l.027,0Zm-.183-.006a.068.068,0,0,0,.123,0l.024,0a2.388,2.388,0,0,0-.043.277c-.014.119-.022.222-.022.268H8.207c0-.045-.012-.148-.03-.267a2.392,2.392,0,0,0-.051-.276l.027,0Zm-.178.042a.057.057,0,0,0,.07.021c.031-.009.052-.032.049-.054l.023,0a2.392,2.392,0,0,0,.03.279c.017.119.036.22.048.264l-.026.008c-.013-.044-.05-.14-.1-.25a2.374,2.374,0,0,0-.121-.253l.026-.01Zm-.161.087a.068.068,0,0,0,.106-.063l.022-.01a2.382,2.382,0,0,0,.1.262c.048.11.092.2.115.243l-.024.014c-.024-.039-.084-.122-.159-.216a2.429,2.429,0,0,0-.182-.213l.021-.017Zm-.133.125a.068.068,0,0,0,.086-.088l.019-.015a2.423,2.423,0,0,0,.165.226c.074.094.141.173.174.2a.154.154,0,0,0-.019.02c-.033-.031-.113-.1-.209-.168a2.428,2.428,0,0,0-.231-.159l.016-.021Zm-.1.156a.068.068,0,0,0,.06-.107l.015-.02a2.426,2.426,0,0,0,.217.176c.1.072.181.131.221.153a.152.152,0,0,0-.013.024c-.04-.022-.134-.064-.246-.108a2.386,2.386,0,0,0-.265-.094l.01-.024Zm-.053.175c.022,0,.045-.019.053-.05a.057.057,0,0,0-.023-.069l.009-.024a2.377,2.377,0,0,0,.256.115c.112.045.209.079.253.091a.15.15,0,0,0-.007.027c-.044-.011-.146-.027-.265-.041a2.4,2.4,0,0,0-.28-.022c0-.009,0-.017,0-.026Zm-.006.183a.068.068,0,0,0,0-.123c0-.009,0-.017,0-.026a2.389,2.389,0,0,0,.277.044c.119.014.222.023.268.023,0,0,0,.009,0,.013s0,.009,0,.014c-.046,0-.148.012-.267.029a2.41,2.41,0,0,0-.276.051c0-.008,0-.017,0-.025Zm.042.178a.057.057,0,0,0,.021-.07c-.009-.031-.032-.051-.054-.049,0-.009,0-.017,0-.026a2.393,2.393,0,0,0,.279-.029c.119-.017.22-.035.264-.047a.152.152,0,0,0,.007.026c-.044.013-.14.05-.251.1a2.39,2.39,0,0,0-.254.12l-.01-.023Zm.1.181L7.654,13a.068.068,0,0,0-.063-.106L7.58,12.87a2.381,2.381,0,0,0,.262-.1c.111-.047.2-.091.243-.114a.156.156,0,0,0,.014.024c-.039.024-.122.084-.217.158a2.423,2.423,0,0,0-.213.181Zm.11.114a.068.068,0,0,0-.088-.086l-.017-.021a2.419,2.419,0,0,0,.227-.164c.095-.074.173-.141.205-.173a.152.152,0,0,0,.02.019c-.032.033-.1.113-.169.209a2.441,2.441,0,0,0-.159.23l-.019-.015Zm.156.1a.068.068,0,0,0-.107-.06l-.022-.016a2.426,2.426,0,0,0,.177-.217c.072-.1.131-.181.154-.22l.024.013c-.022.04-.064.134-.109.245a2.393,2.393,0,0,0-.095.264l-.022-.009Zm.175.053c0-.022-.019-.045-.05-.053a.057.057,0,0,0-.069.023l-.026-.01a2.379,2.379,0,0,0,.115-.256c.045-.111.08-.209.092-.252l.027.007c-.011.044-.027.146-.042.265a2.4,2.4,0,0,0-.023.28Zm.183.006a.068.068,0,0,0-.123,0l-.028,0a2.393,2.393,0,0,0,.045-.277c.015-.119.023-.222.023-.267h.027c0,.045.011.148.028.267a2.392,2.392,0,0,0,.05.276l-.023,0Zm.178-.042a.057.057,0,0,0-.07-.021c-.031.009-.052.032-.049.054l-.028,0A2.4,2.4,0,0,0,8.3,13c-.017-.119-.035-.221-.046-.265l.026-.007c.013.044.049.14.1.251a2.385,2.385,0,0,0,.12.254l-.021.009Zm.161-.087a.068.068,0,0,0-.105.063l-.026.012a2.385,2.385,0,0,0-.1-.263c-.047-.111-.091-.2-.113-.244l.024-.014c.023.039.084.123.157.217a2.426,2.426,0,0,0,.18.214l-.018.014Zm.133-.125a.068.068,0,0,0-.086.088l-.023.018a2.417,2.417,0,0,0-.163-.227c-.074-.095-.14-.174-.172-.206a.158.158,0,0,0,.019-.02c.033.032.112.1.208.169a2.42,2.42,0,0,0,.23.16l-.013.018Zm.1-.156a.068.068,0,0,0-.06.107l-.018.024a2.418,2.418,0,0,0-.216-.178c-.1-.073-.18-.132-.22-.155a.154.154,0,0,0,.014-.026c.04.022.135.063.246.107a2.368,2.368,0,0,0,.265.092l-.012.028Zm.053-.175c-.022,0-.045.019-.053.05a.057.057,0,0,0,.023.069l-.008.02a2.388,2.388,0,0,0-.257-.113c-.112-.044-.209-.078-.253-.089a.15.15,0,0,0,.007-.027c.044.011.146.026.266.04a2.394,2.394,0,0,0,.28.021c0,.01,0,.02,0,.03Zm-.272-.081c-.119-.014-.222-.021-.268-.021,0,0,0-.008,0-.013s0-.01,0-.015c.045,0,.148-.013.267-.03a2.38,2.38,0,0,0,.276-.052c0,.01,0,.02,0,.029a.068.068,0,0,0,0,.123c0,.007,0,.014,0,.022a2.4,2.4,0,0,0-.277-.043ZM8.3,12.59a.073.073,0,1,1-.073-.073A.073.073,0,0,1,8.3,12.59Z" transform="translate(-21156.537 -17239.441)" fill="#fff"/>
  </g>
</svg>
